<?xml version="1.0" encoding="utf-8"?>
<!-- Generator: Adobe Illustrator 25.1.0, SVG Export Plug-In . SVG Version: 6.00 Build 0)  -->
<svg version="1.1" id="Layer_1" xmlns="http://www.w3.org/2000/svg" xmlns:xlink="http://www.w3.org/1999/xlink" x="0px" y="0px"
	 viewBox="0 0 512 512" style="enable-background:new 0 0 512 512;" xml:space="preserve">
<style type="text/css">
	.st0{fill-rule:evenodd;clip-rule:evenodd;}
	.st1{fill-rule:evenodd;clip-rule:evenodd;fill:#44BCC3;}
	.st2{fill-rule:evenodd;clip-rule:evenodd;fill:#444994;}
	.st3{clip-path:url(#SVGID_10_);fill:url(#SVGID_11_);}
	.st4{clip-path:url(#SVGID_13_);fill:url(#SVGID_14_);}
	.st5{clip-path:url(#SVGID_16_);fill:url(#SVGID_17_);}
	.st6{clip-path:url(#SVGID_19_);fill:url(#SVGID_20_);}
	.st7{clip-path:url(#SVGID_22_);fill:url(#SVGID_23_);}
	.st8{clip-path:url(#SVGID_25_);fill:url(#SVGID_26_);}
	.st9{clip-path:url(#SVGID_28_);fill:url(#SVGID_29_);}
	.st10{fill-rule:evenodd;clip-rule:evenodd;fill:#006B49;}
	.st11{fill:#444994;}
	.st12{clip-path:url(#SVGID_30_);fill:url(#SVGID_31_);}
	.st13{clip-path:url(#SVGID_32_);fill:url(#SVGID_33_);}
	.st14{clip-path:url(#SVGID_34_);fill:url(#SVGID_35_);}
	.st15{clip-path:url(#SVGID_36_);fill:url(#SVGID_37_);}
	.st16{clip-path:url(#SVGID_38_);fill:url(#SVGID_39_);}
	.st17{clip-path:url(#SVGID_40_);fill:url(#SVGID_41_);}
	.st18{clip-path:url(#SVGID_42_);fill:url(#SVGID_43_);}
	.st19{clip-path:url(#SVGID_44_);fill:url(#SVGID_45_);}
	.st20{fill:#00A551;}
	.st21{clip-path:url(#SVGID_47_);fill:url(#SVGID_48_);}
	.st22{clip-path:url(#SVGID_50_);fill:url(#SVGID_51_);}
	.st23{clip-path:url(#SVGID_53_);fill:url(#SVGID_54_);}
	.st24{clip-path:url(#SVGID_56_);fill:url(#SVGID_57_);}
	.st25{fill:#231F20;}
	.st26{fill:#5A5A5D;}
	.st27{fill:#29A457;}
	.st28{fill:#21409A;}
	.st29{fill:#DA2128;}
	.st30{fill:#FCB134;}
	.st31{fill:#FFFFFF;}
	.st32{fill-rule:evenodd;clip-rule:evenodd;fill:#3C75BA;}
	.st33{fill:#F8C713;}
	.st34{fill-rule:evenodd;clip-rule:evenodd;fill:#F8C713;}
	.st35{fill-rule:evenodd;clip-rule:evenodd;stroke:#FFFFFF;stroke-width:0.4;stroke-miterlimit:22.9256;}
	.st36{fill:#44BCC3;}
</style>
<g>
	<g>
		<defs>
			<polygon id="SVGID_46_" points="106.9,140.8 151.9,185.8 241.9,95.9 284.4,134.6 325.9,88.8 241.9,6 			"/>
		</defs>
		<clipPath id="SVGID_10_">
			<use xlink:href="#SVGID_46_"  style="overflow:visible;"/>
		</clipPath>
		<linearGradient id="SVGID_11_" gradientUnits="userSpaceOnUse" x1="213.9382" y1="6.7802" x2="217.1335" y2="123.2033">
			<stop  offset="0" style="stop-color:#054287"/>
			<stop  offset="1" style="stop-color:#00A4DA"/>
		</linearGradient>
		<rect x="106.9" y="6" class="st3" width="219.1" height="179.8"/>
	</g>
	<g>
		<defs>
			<polygon id="SVGID_49_" points="350.6,208.8 308.9,167.1 441.4,33.2 481.5,73.3 			"/>
		</defs>
		<clipPath id="SVGID_13_">
			<use xlink:href="#SVGID_49_"  style="overflow:visible;"/>
		</clipPath>
		<linearGradient id="SVGID_14_" gradientUnits="userSpaceOnUse" x1="444.6706" y1="35.0584" x2="353.2864" y2="193.8914">
			<stop  offset="0" style="stop-color:#054287"/>
			<stop  offset="0.1096" style="stop-color:#045092"/>
			<stop  offset="0.5119" style="stop-color:#027EB8"/>
			<stop  offset="0.8218" style="stop-color:#019ACF"/>
			<stop  offset="1" style="stop-color:#00A5D8"/>
		</linearGradient>
		<rect x="308.9" y="33.2" class="st4" width="172.6" height="175.6"/>
	</g>
	<g>
		<defs>
			<polygon id="SVGID_52_" points="35.5,378.5 77.6,420.6 209.1,287.1 168.3,246.3 			"/>
		</defs>
		<clipPath id="SVGID_16_">
			<use xlink:href="#SVGID_52_"  style="overflow:visible;"/>
		</clipPath>
		<linearGradient id="SVGID_17_" gradientUnits="userSpaceOnUse" x1="171.4805" y1="250.1845" x2="73.0668" y2="416.8022">
			<stop  offset="0" style="stop-color:#054287"/>
			<stop  offset="3.927070e-02" style="stop-color:#05488C"/>
			<stop  offset="0.3313" style="stop-color:#0370AE"/>
			<stop  offset="0.5986" style="stop-color:#018CC6"/>
			<stop  offset="0.8302" style="stop-color:#009ED5"/>
			<stop  offset="1" style="stop-color:#00A4DA"/>
		</linearGradient>
		<rect x="35.5" y="246.3" class="st5" width="173.5" height="174.3"/>
	</g>
	<g>
		<defs>
			<polygon id="SVGID_55_" points="202.1,396.6 243.2,437.6 376.4,303.7 243.5,172.9 202.9,211.5 292.2,304 			"/>
		</defs>
		<clipPath id="SVGID_19_">
			<use xlink:href="#SVGID_55_"  style="overflow:visible;"/>
		</clipPath>
		<linearGradient id="SVGID_20_" gradientUnits="userSpaceOnUse" x1="214.3976" y1="219.1172" x2="325.1856" y2="346.6367">
			<stop  offset="0" style="stop-color:#004589"/>
			<stop  offset="0.1821" style="stop-color:#004B8E"/>
			<stop  offset="0.4297" style="stop-color:#005D9D"/>
			<stop  offset="0.7148" style="stop-color:#0079B5"/>
			<stop  offset="1" style="stop-color:#009DD4"/>
		</linearGradient>
		<rect x="202.1" y="172.9" class="st6" width="174.3" height="264.7"/>
	</g>
	<path class="st25" d="M342.5,459l-7.7,13.2l-7.9-13.2h-13.3l14.3,21.6l-16.1,24.6h13.2l9.5-16.3l10,16.3h13.3l-16-24.3l14.1-21.8
		H342.5z M295.2,459l-7.7,13.2l-7.9-13.2h-13.3l14.3,21.6l-16.1,24.6h13.2l9.5-16.3l10,16.3h13.3l-16-24.3l14.1-21.8H295.2z
		 M234.9,505.1h25.6v-10.3h-14.3v-7.9h13.9v-10.3h-13.9v-7.2h14.3V459h-25.6V505.1z M209.4,505.1h11.8v-35.8h9V459h-29.9v10.4h9.1
		V505.1z M172.8,469.3h4.3c4.6,0,7.6,2.1,7.6,6.2c0,2.2-0.8,6.6-7.7,6.6h-4.2V469.3z M161.5,505.1h11.3v-14.9h0.1l10.7,14.9h13.5
		l-12.5-15.7c8.7-1.4,11.5-9.2,11.5-14.5c0-4.7-1.9-9.6-5.7-12.6c-3-2.3-6.1-3.3-14.2-3.3h-14.6V505.1z M118.3,481.9
		c0-6.5,4.4-13.5,12.6-13.5c8.5,0,12.5,7.7,12.5,13.7c0,5.9-4.1,13.5-12.4,13.5C123.1,495.6,118.3,489,118.3,481.9z M108.3,472.8
		c-1.4,3.4-1.8,6.8-1.8,9.9c0,11.8,9.7,23.4,24.3,23.4c14.3,0,24.4-11.1,24.4-23.9c0-12.8-10.2-23.9-24.4-23.9
		C117.9,458.1,110.7,466.8,108.3,472.8z M80.1,469.3h4.4c2.6,0,7.8,0,7.8,5.4c0,5.5-5.1,5.5-7.4,5.5h-4.8V469.3z M68.8,505.1h11.3
		v-14.5h5.1c7.2,0,10.3-1.3,13.5-4c2.9-2.5,4.9-7.4,4.9-12.1c0-4.7-1.8-9.2-5.4-12.2c-2.5-2.1-5.7-3.4-14.2-3.4H68.8V505.1z
		 M62.8,472.5c-0.1-2.6-0.3-5.7-3.1-9.1c-3-3.6-7.9-5.2-12.5-5.2c-7.7,0-16.1,4.9-16.1,13.6c0,8.7,8,11.9,11.3,13.2
		c7.1,3,9,3.7,9,6.8c0,2.1-1.7,4.4-4.5,4.4c-1.5,0-4.8-0.9-4.8-6.3H30.5v1.5c0,5.9,3.3,14.7,16.6,14.7c12.2,0,16.1-7.4,16.1-14.2
		c0-5.4-2.2-9.4-10.8-13.2c-8.3-3.7-9.5-4.3-9.5-7c0-2.2,2-3.6,4.1-3.6c3.6,0,4,2.9,4.2,4.5H62.8z"/>
</g>
</svg>
