<?xml version="1.0" encoding="utf-8"?>
<!-- Generator: Adobe Illustrator 25.1.0, SVG Export Plug-In . SVG Version: 6.00 Build 0)  -->
<svg version="1.1" id="Layer_1" xmlns="http://www.w3.org/2000/svg" xmlns:xlink="http://www.w3.org/1999/xlink" x="0px" y="0px"
	 viewBox="0 0 512 512" style="enable-background:new 0 0 512 512;" xml:space="preserve">
<style type="text/css">
	.st0{fill-rule:evenodd;clip-rule:evenodd;}
	.st1{fill-rule:evenodd;clip-rule:evenodd;fill:#44BCC3;}
	.st2{fill-rule:evenodd;clip-rule:evenodd;fill:#444994;}
	.st3{clip-path:url(#SVGID_10_);fill:url(#SVGID_11_);}
	.st4{clip-path:url(#SVGID_13_);fill:url(#SVGID_14_);}
	.st5{clip-path:url(#SVGID_16_);fill:url(#SVGID_17_);}
	.st6{clip-path:url(#SVGID_19_);fill:url(#SVGID_20_);}
	.st7{clip-path:url(#SVGID_22_);fill:url(#SVGID_23_);}
	.st8{clip-path:url(#SVGID_25_);fill:url(#SVGID_26_);}
	.st9{clip-path:url(#SVGID_28_);fill:url(#SVGID_29_);}
	.st10{fill-rule:evenodd;clip-rule:evenodd;fill:#006B49;}
	.st11{fill:#444994;}
	.st12{clip-path:url(#SVGID_30_);fill:url(#SVGID_31_);}
	.st13{clip-path:url(#SVGID_32_);fill:url(#SVGID_33_);}
	.st14{clip-path:url(#SVGID_34_);fill:url(#SVGID_35_);}
	.st15{clip-path:url(#SVGID_36_);fill:url(#SVGID_37_);}
	.st16{clip-path:url(#SVGID_38_);fill:url(#SVGID_39_);}
	.st17{clip-path:url(#SVGID_40_);fill:url(#SVGID_41_);}
	.st18{clip-path:url(#SVGID_42_);fill:url(#SVGID_43_);}
	.st19{clip-path:url(#SVGID_44_);fill:url(#SVGID_45_);}
	.st20{fill:#00A551;}
	.st21{clip-path:url(#SVGID_47_);fill:url(#SVGID_48_);}
	.st22{clip-path:url(#SVGID_50_);fill:url(#SVGID_51_);}
	.st23{clip-path:url(#SVGID_53_);fill:url(#SVGID_54_);}
	.st24{clip-path:url(#SVGID_56_);fill:url(#SVGID_57_);}
	.st25{fill:#231F20;}
	.st26{fill:#5A5A5D;}
	.st27{fill:#29A457;}
	.st28{fill:#21409A;}
	.st29{fill:#DA2128;}
	.st30{fill:#FCB134;}
	.st31{fill:#FFFFFF;}
	.st32{fill-rule:evenodd;clip-rule:evenodd;fill:#3C75BA;}
	.st33{fill:#F8C713;}
	.st34{fill-rule:evenodd;clip-rule:evenodd;fill:#F8C713;}
	.st35{fill-rule:evenodd;clip-rule:evenodd;stroke:#FFFFFF;stroke-width:0.4;stroke-miterlimit:22.9256;}
	.st36{fill:#44BCC3;}
</style>
<g>
	<path class="st1" d="M295.2,6.8C187.6-3.6,69.2,90,44.1,194.2c-2.2,8.9-3.4,15.6-4.9,23.8l-2.6,22.7c-0.2,5.1,0,7.7,0.1,12.7
		c1.7,58.8,11.2,98.6,46.1,147.4c41.8,58.4,103.1,94.4,173.1,104.3l3.8,0.4c0.3,0,0.9,0.1,1.3,0.1l47.6,0.3
		c50.1-3.9,108.4-27.7,145.5-63.8c-35.8,30.9-82.2,44.7-126.2,50.2c-10.7,1.3-20.4,0.8-31.1,0.1c-32.5-2.2-55.1-4.7-90.4-22.3
		c-73.5-36.7-122-98.9-130.3-181.3c-1.6-16.2-6.7-45.7-0.1-60.9c-2.7-4.4,1.8-9.9,2.6-14.8c0.4-2.5,0.8-4.7,1.3-7.1
		c16.3-80.6,76-144.9,154.6-170.4c82.3-26.7,181.2-6.5,240.8,58.2c-43.6-48-105.1-82.5-169-86.1C303.3,7.4,298.3,6.9,295.2,6.8"/>
	<path class="st2" d="M277.8,22.2c-73.5-7.1-160.6,43.2-200.5,103.7c-15.9,24.1-26,41.9-32.9,70.5c-2,8.3-3.2,14.5-4.5,22.1
		l-2.4,21.1c-0.2,4.7,0,7.2,0.1,11.8C39.1,306,48,343,80.5,388.3c38.8,54.3,95.8,87.7,160.8,96.9l3.5,0.4c0.3,0,0.8,0.1,1.2,0.1
		l44.2,0.3c46.5-3.6,100.7-25.7,135.2-59.3c-33.3,28.7-76.4,41.5-117.2,46.6c-10,1.2-19,0.7-28.9,0.1c-30.2-2-51.2-4.3-84-20.7
		c-68.3-34.1-111.8-92.5-119.5-169c-1.5-15.1-2.3-42.9,0.3-56.5c1-5.3,1.7-9.2,2.4-13.7c13.2-78.1,67.6-140,142.9-164.5
		c19-6.2,53.8-12.3,73.3-11.4c54.4,2.5,113.3,25.1,150.4,65.5c-40.5-44.6-97.6-76.7-157-80C285.3,22.9,280.5,22.8,277.8,22.2"/>
</g>
</svg>
