<?xml version="1.0" encoding="utf-8"?>
<!-- Generator: Adobe Illustrator 25.1.0, SVG Export Plug-In . SVG Version: 6.00 Build 0)  -->
<svg version="1.1" id="Layer_1" xmlns="http://www.w3.org/2000/svg" xmlns:xlink="http://www.w3.org/1999/xlink" x="0px" y="0px"
	 viewBox="0 0 512 512" style="enable-background:new 0 0 512 512;" xml:space="preserve">
<style type="text/css">
	.st0{fill-rule:evenodd;clip-rule:evenodd;}
	.st1{fill-rule:evenodd;clip-rule:evenodd;fill:#44BCC3;}
	.st2{fill-rule:evenodd;clip-rule:evenodd;fill:#444994;}
	.st3{clip-path:url(#SVGID_10_);fill:url(#SVGID_11_);}
	.st4{clip-path:url(#SVGID_13_);fill:url(#SVGID_14_);}
	.st5{clip-path:url(#SVGID_16_);fill:url(#SVGID_17_);}
	.st6{clip-path:url(#SVGID_19_);fill:url(#SVGID_20_);}
	.st7{clip-path:url(#SVGID_22_);fill:url(#SVGID_23_);}
	.st8{clip-path:url(#SVGID_25_);fill:url(#SVGID_26_);}
	.st9{clip-path:url(#SVGID_28_);fill:url(#SVGID_29_);}
	.st10{fill-rule:evenodd;clip-rule:evenodd;fill:#006B49;}
	.st11{fill:#444994;}
	.st12{clip-path:url(#SVGID_30_);fill:url(#SVGID_31_);}
	.st13{clip-path:url(#SVGID_32_);fill:url(#SVGID_33_);}
	.st14{clip-path:url(#SVGID_34_);fill:url(#SVGID_35_);}
	.st15{clip-path:url(#SVGID_36_);fill:url(#SVGID_37_);}
	.st16{clip-path:url(#SVGID_38_);fill:url(#SVGID_39_);}
	.st17{clip-path:url(#SVGID_40_);fill:url(#SVGID_41_);}
	.st18{clip-path:url(#SVGID_42_);fill:url(#SVGID_43_);}
	.st19{clip-path:url(#SVGID_44_);fill:url(#SVGID_45_);}
	.st20{fill:#00A551;}
	.st21{clip-path:url(#SVGID_47_);fill:url(#SVGID_48_);}
	.st22{clip-path:url(#SVGID_50_);fill:url(#SVGID_51_);}
	.st23{clip-path:url(#SVGID_53_);fill:url(#SVGID_54_);}
	.st24{clip-path:url(#SVGID_56_);fill:url(#SVGID_57_);}
	.st25{fill:#231F20;}
	.st26{fill:#5A5A5D;}
	.st27{fill:#29A457;}
	.st28{fill:#21409A;}
	.st29{fill:#DA2128;}
	.st30{fill:#FCB134;}
	.st31{fill:#FFFFFF;}
	.st32{fill-rule:evenodd;clip-rule:evenodd;fill:#3C75BA;}
	.st33{fill:#F8C713;}
	.st34{fill-rule:evenodd;clip-rule:evenodd;fill:#F8C713;}
	.st35{fill-rule:evenodd;clip-rule:evenodd;stroke:#FFFFFF;stroke-width:0.4;stroke-miterlimit:22.9256;}
	.st36{fill:#44BCC3;}
</style>
<path class="st35" d="M253.8,137.7l-3.9,6.6c-2.1-2-1.4-0.1-4.1-4.9c-2.8-4.9,0.6,1.5-1.9-5.3c-7.7-7.9,3.2-12.7-5.6-22.6
	c-4.5-5.1-11.4-5.9-17.7-1.5l-4.4,4.5l-10.4-6.1l4.9-2.9c0.5-0.2,1.1-0.4,1.5-0.6c0.3-0.1,3.8-0.6,5.1-1c2.9-13.9,0.5-20.3-2.8-29.9
	c-0.9-2.8-3.3-10-3.8-12.2c-1.6-6.7,0.1-7.2-2.2-13.3c-20.4-3.3-35,1.3-47.2,11.8c-2.5,20.4,13.3,33.5,6.3,49.6
	c-3,5.3-49.2,25.7-33.7,66.1c2.9,7.6,6,10.3,9.3,16.8c3.1,6.1,4.8,12.3,7.9,17.5l23.7,27.3c-27.3-0.2-51-8.5-80.6-1.7
	c20,17.7,62.5-0.5,85.5,12.7c0.8,13,3.7,17.3-3.4,26.2c-4.6,5.8-10.2,10.8-10.5,19.9l20,0.6c0.9,20.3,1,40.6,0.4,60.9
	c-0.5,20.4-4.5,34.5-4.1,55.2c0.9,46.9,11.9,33.5,10.1,51c-1.7,17.4-17.7,29.1-15.2,43.6c13.5,7.7,23.2,5.8,25.8-9.9
	c3.4-20.7,9.1-10.4,8.6-33.4c-0.4-18.3,6-17.5,6.6-37.4c0.5-17.3-0.6-22.7,4.7-36.8c20-52.7,3.6-59.2,42.2-129.5
	c14.1-25.6,4-22.6,31.9-54.7c7.4-8.5,12.6-11.8,21.2-22.1L355,134c12.5-9.8,10.3-4.2,20.6-20.7c18.4-29.3,5.5-18.6,13.6-29.8
	c6.1-8.4,16.6-12.7,22.2-19c0.7-6.7,0-12.4,1.3-19c0.7-3.4,11.5-27.3-1.2-44C398.3,2,402.8,15,397.7,27c-4,9.4-8.8,13.5-13.9,23.7
	c-4.9,9.9-8.3,13.7-16,21.3c-10.2,10.2-10.9,2.9-21.5,16c-10.8,13.3-24.4,32.1-35.1,41.7c-11.7,10.5-29.2,24.8-41.3,32.9
	c2.6-8.1,10.9-13.2,5.6-25C266.4,129.5,262.3,132.2,253.8,137.7z"/>
</svg>
