<?xml version="1.0" encoding="utf-8"?>
<!-- Generator: Adobe Illustrator 25.1.0, SVG Export Plug-In . SVG Version: 6.00 Build 0)  -->
<svg version="1.1" id="Layer_1" xmlns="http://www.w3.org/2000/svg" xmlns:xlink="http://www.w3.org/1999/xlink" x="0px" y="0px"
	 viewBox="0 0 512 227" style="enable-background:new 0 0 512 227;" xml:space="preserve">
<style type="text/css">
	.st0{fill-rule:evenodd;clip-rule:evenodd;}
	.st1{fill-rule:evenodd;clip-rule:evenodd;fill:#44BCC3;}
	.st2{fill-rule:evenodd;clip-rule:evenodd;fill:#444994;}
	.st3{clip-path:url(#SVGID_10_);fill:url(#SVGID_11_);}
	.st4{clip-path:url(#SVGID_13_);fill:url(#SVGID_14_);}
	.st5{clip-path:url(#SVGID_16_);fill:url(#SVGID_17_);}
	.st6{clip-path:url(#SVGID_19_);fill:url(#SVGID_20_);}
	.st7{clip-path:url(#SVGID_22_);fill:url(#SVGID_23_);}
	.st8{clip-path:url(#SVGID_25_);fill:url(#SVGID_26_);}
	.st9{clip-path:url(#SVGID_28_);fill:url(#SVGID_29_);}
	.st10{fill-rule:evenodd;clip-rule:evenodd;fill:#006B49;}
	.st11{fill:#444994;}
	.st12{clip-path:url(#SVGID_30_);fill:url(#SVGID_31_);}
	.st13{clip-path:url(#SVGID_32_);fill:url(#SVGID_33_);}
	.st14{clip-path:url(#SVGID_34_);fill:url(#SVGID_35_);}
	.st15{clip-path:url(#SVGID_36_);fill:url(#SVGID_37_);}
	.st16{clip-path:url(#SVGID_38_);fill:url(#SVGID_39_);}
	.st17{clip-path:url(#SVGID_40_);fill:url(#SVGID_41_);}
	.st18{clip-path:url(#SVGID_42_);fill:url(#SVGID_43_);}
	.st19{clip-path:url(#SVGID_44_);fill:url(#SVGID_45_);}
	.st20{fill:#00A551;}
	.st21{clip-path:url(#SVGID_47_);fill:url(#SVGID_48_);}
	.st22{clip-path:url(#SVGID_50_);fill:url(#SVGID_51_);}
	.st23{clip-path:url(#SVGID_53_);fill:url(#SVGID_54_);}
	.st24{clip-path:url(#SVGID_56_);fill:url(#SVGID_57_);}
	.st25{fill:#231F20;}
	.st26{fill:#5A5A5D;}
	.st27{fill:#29A457;}
	.st28{fill:#21409A;}
	.st29{fill:#DA2128;}
	.st30{fill:#FCB134;}
	.st31{fill:#FFFFFF;}
	.st32{fill-rule:evenodd;clip-rule:evenodd;fill:#3C75BA;}
	.st33{fill:#F8C713;}
	.st34{fill-rule:evenodd;clip-rule:evenodd;fill:#F8C713;}
	.st35{fill-rule:evenodd;clip-rule:evenodd;stroke:#FFFFFF;stroke-width:0.4;stroke-miterlimit:22.9256;}
	.st36{fill:#44BCC3;}
</style>
<g>
	<path class="st26" d="M180.5,110.8l-4.3-30.4h8.9l2,18l8.7-18h6.8l2.6,18l8.1-18h9l-14.6,30.4h-8.5L197,94.7l-8,16.1
		C189,110.8,180.5,110.8,180.5,110.8z M228.1,107.1c-2.6-3.1-3.6-7.4-2.9-12.1c1.4-8.6,10-15.6,19.2-15.6c4.6,0,8.8,1.8,11.5,5
		c2.5,2.9,3.5,6.7,2.8,10.8c-1.5,9.7-9.7,16.7-19.4,16.7C234.7,111.8,230.7,110.1,228.1,107.1z M234.1,95.1
		c-0.4,2.4,0.1,4.5,1.5,6.1c1.2,1.4,3,2.2,5,2.2c4.4,0,8.5-3.7,9.3-8.4c0.3-1.8-0.2-3.6-1.4-4.9c-1.3-1.5-3.2-2.3-5.3-2.3
		C239,87.7,234.7,91.2,234.1,95.1z M275.3,110.8h-8.6l4.8-30.4h11.9c3.5,0,6.2,1,7.8,2.9c1.4,1.7,1.9,3.9,1.5,6.8
		c-0.7,4.3-3.6,7.6-7.5,8.6l7.5,12.2h-10.7l-5-10.4L275.3,110.8z M278.2,93.6c3.4,0,5.1-1,5.4-3.3c0.1-0.9,0-1.6-0.4-2.1
		c-0.8-0.9-2.6-1.1-3.9-1.1H279l-1,6.4H278.2z M320.1,103.3h-9.2l3.6-23h-8.6l-4.8,30.4h17.8L320.1,103.3z M357.5,95.6
		c-1.3,8.3-9.3,15.1-17.8,15.1h-11.4l4.8-30.4h11.3c4.2,0,7.8,1.6,10.3,4.5C357.2,87.7,358.1,91.5,357.5,95.6z M347.4,89.9
		c-1.2-1.4-3.1-2.1-5.5-2.1h-1.4l-2.5,15.6h1.2c5.1,0,8.6-2.9,9.3-7.9C349,93.1,348.6,91.2,347.4,89.9z M177.2,133.7l-1.2,7.4h6.3
		l-3.6,23h8.6l3.6-23h6.3l1.2-7.4H177.2z M223.6,133.7l6.6,30.4h-9.1L220,159h-9.9l-2.9,5.1h-9.2l16.5-30.4H223.6z M217.4,144.6
		l-3.7,7.5h5L217.4,144.6z M237.4,164.1h17.7l1.2-7.4h-9.1l0.7-4.1h8.7l1.2-7.4H249l0.6-4h9.1l1.2-7.4h-17.7L237.4,164.1z
		 M288.7,133.7l-10.4,11.3l1.8-11.3h-8.6l-4.8,30.4h8.6l1.9-12l7.4,12h11.1l-10.6-15.9l14.5-14.5
		C299.6,133.7,288.7,133.7,288.7,133.7z M334.8,151.7l-2.6-18h-6.8l-8.7,18l-2-18h-8.9l4.3,30.4h8.5l8-16.1l2.3,16.1h8.5l14.6-30.4
		h-9L334.8,151.7z M385.5,137.7c2.5,2.9,3.5,6.7,2.8,10.8c-1.5,9.7-9.7,16.7-19.4,16.7c-4.7,0-8.7-1.7-11.3-4.7
		c-2.6-3.1-3.6-7.4-2.9-12.1c1.4-8.6,10-15.6,19.2-15.6C378.5,132.7,382.8,134.5,385.5,137.7z M378,143.4c-1.3-1.5-3.2-2.3-5.3-2.3
		c-4.2,0-8.5,3.4-9.1,7.4c-0.4,2.4,0.1,4.5,1.5,6.1c1.2,1.4,3,2.2,5,2.2c4.4,0,8.5-3.7,9.3-8.4C379.6,146.5,379.2,144.7,378,143.4z
		 M420.1,150.9l-10.6-17.1l-0.1-0.2H401l-4.8,30.4h8.6l2.7-17.3l10.7,17.3h8.3l4.8-30.4h-8.6L420.1,150.9z M464.9,138.2
		c2.4,2.9,3.4,6.7,2.8,10.8c-1.3,8.3-9.3,15.1-17.8,15.1h-11.4l4.8-30.4h11.3C458.8,133.7,462.4,135.3,464.9,138.2z M457.6,143.2
		c-1.2-1.4-3.1-2.1-5.5-2.1h-1.4l-2.5,15.6h1.2c5.1,0,8.6-2.9,9.3-7.9C459.2,146.5,458.8,144.5,457.6,143.2z M510.3,148.4
		c-1.5,9.7-9.7,16.7-19.4,16.7c-4.7,0-8.7-1.7-11.3-4.7c-2.6-3.1-3.6-7.4-2.9-12.1c1.4-8.6,10-15.6,19.2-15.6c4.6,0,8.8,1.8,11.5,5
		C509.9,140.6,510.9,144.4,510.3,148.4z M487.1,154.5c1.2,1.4,3,2.2,5,2.2c4.4,0,8.5-3.7,9.3-8.4c0.3-1.8-0.2-3.6-1.4-4.9
		c-1.3-1.5-3.2-2.3-5.3-2.3c-4.2,0-8.5,3.4-9.1,7.4C485.3,150.8,485.8,153,487.1,154.5z"/>
	<g>
		<path class="st27" d="M17.5,54.7c8.8,0,16-9.3,16-20.8S26.3,13,17.5,13c-8.8,0-16,9.3-16,20.8C1.5,45.4,8.7,54.7,17.5,54.7"/>
		<path class="st28" d="M272.4,1.2C231.8,6,137.9,17.4,78.9,43.6c0,0,40.6,17.4,106.5-7v0c24.6-10,53.3-20.6,88-31.6
			c1.1-0.6,1.2-2,1.2-2C274.3,1.4,273.1,1.2,272.4,1.2"/>
		<path class="st29" d="M78.9,43.6l22.6-22.7c2.4-3.3,0-3.4-1.5-3.3c-21.6,7.5-86,33.5-87,78.9c-0.1,0.8-0.1,1.6-0.1,2.4
			c27.9-0.7,56.7-9.6,79.6-19.1c1.2-0.7,3.6-1.5,3.6-1.5c25.1-10.7,42.4-21.6,42.4-21.6c14.1-6.4,29.5-13.1,46.8-20.1v0
			C119.5,61,78.9,43.6,78.9,43.6"/>
		<path class="st30" d="M12.9,98.9c0,2.3,0.2,4.6,0.8,6.9c0,0.1,0,0.3,0,0.4l0,0c1.9,7.5,6.7,15.4,14.9,23.8c1,0.6,2.4,0.9,3.7-0.9
			c3.3-7.1,13.9-23.7,60.2-49.3C69.6,89.3,40.8,98.2,12.9,98.9z M138.5,56.7c0,0-17.3,10.9-42.4,21.6l-20.5,54.6
			c32.4-21,49.6-35.1,56.5-51.5c0.1-0.1,0.1-0.3,0.2-0.4C136.6,70.6,139,62.2,138.5,56.7z"/>
		<path d="M44,225.3c17.1-22.5,71.6-99.4,88.9-145.5c-6.4,17.1-23.7,31.4-57.2,53.1l-12.8,34.4L41.5,224
			C41.6,224.6,42.7,226.9,44,225.3L44,225.3z"/>
	</g>
</g>
</svg>
