<?xml version="1.0" encoding="utf-8"?>
<!-- Generator: Adobe Illustrator 25.1.0, SVG Export Plug-In . SVG Version: 6.00 Build 0)  -->
<svg version="1.1" id="Layer_1" xmlns="http://www.w3.org/2000/svg" xmlns:xlink="http://www.w3.org/1999/xlink" x="0px" y="0px"
	 viewBox="0 0 512 227" style="enable-background:new 0 0 512 227;" xml:space="preserve">
<style type="text/css">
	.st0{fill-rule:evenodd;clip-rule:evenodd;}
	.st1{fill-rule:evenodd;clip-rule:evenodd;fill:#44BCC3;}
	.st2{fill-rule:evenodd;clip-rule:evenodd;fill:#444994;}
	.st3{clip-path:url(#SVGID_10_);fill:url(#SVGID_11_);}
	.st4{clip-path:url(#SVGID_13_);fill:url(#SVGID_14_);}
	.st5{clip-path:url(#SVGID_16_);fill:url(#SVGID_17_);}
	.st6{clip-path:url(#SVGID_19_);fill:url(#SVGID_20_);}
	.st7{clip-path:url(#SVGID_22_);fill:url(#SVGID_23_);}
	.st8{clip-path:url(#SVGID_25_);fill:url(#SVGID_26_);}
	.st9{clip-path:url(#SVGID_28_);fill:url(#SVGID_29_);}
	.st10{fill-rule:evenodd;clip-rule:evenodd;fill:#006B49;}
	.st11{fill:#444994;}
	.st12{clip-path:url(#SVGID_30_);fill:url(#SVGID_31_);}
	.st13{clip-path:url(#SVGID_32_);fill:url(#SVGID_33_);}
	.st14{clip-path:url(#SVGID_34_);fill:url(#SVGID_35_);}
	.st15{clip-path:url(#SVGID_36_);fill:url(#SVGID_37_);}
	.st16{clip-path:url(#SVGID_38_);fill:url(#SVGID_39_);}
	.st17{clip-path:url(#SVGID_40_);fill:url(#SVGID_41_);}
	.st18{clip-path:url(#SVGID_42_);fill:url(#SVGID_43_);}
	.st19{clip-path:url(#SVGID_44_);fill:url(#SVGID_45_);}
	.st20{fill:#00A551;}
	.st21{clip-path:url(#SVGID_47_);fill:url(#SVGID_48_);}
	.st22{clip-path:url(#SVGID_50_);fill:url(#SVGID_51_);}
	.st23{clip-path:url(#SVGID_53_);fill:url(#SVGID_54_);}
	.st24{clip-path:url(#SVGID_56_);fill:url(#SVGID_57_);}
	.st25{fill:#231F20;}
	.st26{fill:#5A5A5D;}
	.st27{fill:#29A457;}
	.st28{fill:#21409A;}
	.st29{fill:#DA2128;}
	.st30{fill:#FCB134;}
	.st31{fill:#FFFFFF;}
	.st32{fill-rule:evenodd;clip-rule:evenodd;fill:#3C75BA;}
	.st33{fill:#F8C713;}
	.st34{fill-rule:evenodd;clip-rule:evenodd;fill:#F8C713;}
	.st35{fill-rule:evenodd;clip-rule:evenodd;stroke:#FFFFFF;stroke-width:0.4;stroke-miterlimit:22.9256;}
	.st36{fill:#44BCC3;}
</style>
<g>
	<path class="st26" d="M118.7,111.7L116,92.1h5.8l1.3,11.6l5.6-11.6h4.4l1.7,11.6l5.2-11.6h5.8l-9.4,19.7h-5.5l-1.5-10.4l-5.2,10.4
		C124.2,111.7,118.7,111.7,118.7,111.7z M149.5,109.3c-1.7-2-2.4-4.8-1.9-7.8c0.9-5.6,6.5-10.1,12.4-10.1c3,0,5.7,1.2,7.5,3.2
		c1.6,1.9,2.2,4.3,1.8,7c-1,6.2-6.3,10.8-12.5,10.8C153.8,112.4,151.2,111.3,149.5,109.3z M153.4,101.6c-0.3,1.5,0.1,2.9,0.9,3.9
		c0.8,0.9,1.9,1.4,3.2,1.4c2.9,0,5.5-2.4,6-5.4c0.2-1.1-0.1-2.3-0.9-3.2c-0.8-0.9-2.1-1.5-3.4-1.5
		C156.6,96.8,153.8,99.1,153.4,101.6z M180.1,111.7h-5.6l3.1-19.7h7.7c2.3,0,4,0.6,5.1,1.8c0.9,1.1,1.2,2.6,0.9,4.4
		c-0.4,2.8-2.3,4.9-4.8,5.6l4.8,7.9h-6.9l-3.2-6.7L180.1,111.7z M181.9,100.6c2.2,0,3.3-0.7,3.5-2.1c0.1-0.6,0-1-0.3-1.3
		c-0.5-0.6-1.7-0.7-2.5-0.7h-0.2l-0.7,4.1H181.9z M209,106.9h-6l2.4-14.9h-5.6l-3.1,19.7h11.5L209,106.9z M233.2,101.9
		c-0.9,5.4-6,9.8-11.5,9.8h-7.4l3.1-19.7h7.3c2.7,0,5.1,1,6.7,2.9C233,96.8,233.6,99.3,233.2,101.9z M226.7,98.2
		c-0.8-0.9-2-1.4-3.5-1.4h-0.9l-1.6,10.1h0.8c3.3,0,5.5-1.9,6-5.1C227.7,100.3,227.4,99.1,226.7,98.2z M116.6,126.5l-0.8,4.8h4.1
		l-2.4,14.9h5.6l2.4-14.9h4.1l0.8-4.8H116.6z M146.6,126.5l4.3,19.7H145l-0.7-3.3h-6.4l-1.8,3.3h-6l10.7-19.7H146.6z M142.6,133.6
		l-2.4,4.9h3.3L142.6,133.6z M155.5,146.2H167l0.8-4.8h-5.9l0.4-2.7h5.6l0.8-4.8H163l0.4-2.6h5.9l0.8-4.8h-11.5L155.5,146.2z
		 M188.7,126.5l-6.7,7.3l1.2-7.3h-5.6l-3.1,19.7h5.6l1.2-7.8l4.8,7.8h7.2l-6.9-10.3l9.4-9.4C195.8,126.5,188.7,126.5,188.7,126.5z
		 M218.5,138.2l-1.7-11.6h-4.4l-5.6,11.6l-1.3-11.6h-5.8l2.8,19.7h5.5l5.2-10.4l1.5,10.4h5.5l9.4-19.7h-5.8L218.5,138.2z
		 M251.3,129.1c1.6,1.9,2.2,4.3,1.8,7c-1,6.2-6.3,10.8-12.5,10.8c-3.1,0-5.6-1.1-7.3-3c-1.7-2-2.4-4.8-1.9-7.8
		c0.9-5.6,6.5-10.1,12.4-10.1C246.8,125.9,249.5,127.1,251.3,129.1z M246.5,132.8c-0.8-0.9-2.1-1.5-3.4-1.5c-2.7,0-5.5,2.2-5.9,4.8
		c-0.2,1.5,0.1,2.9,0.9,3.9c0.8,0.9,1.9,1.4,3.2,1.4c2.9,0,5.5-2.4,6-5.4C247.5,134.9,247.2,133.7,246.5,132.8z M273.7,137.7
		l-6.8-11l-0.1-0.1h-5.4l-3.1,19.7h5.6l1.8-11.2l6.9,11.2h5.4l3.1-19.7h-5.6L273.7,137.7z M302.7,129.4c1.6,1.9,2.2,4.3,1.8,7
		c-0.9,5.4-6,9.8-11.5,9.8h-7.4l3.1-19.7h7.3C298.7,126.5,301,127.6,302.7,129.4z M297.9,132.7c-0.8-0.9-2-1.4-3.5-1.4h-0.9
		l-1.6,10.1h0.8c3.3,0,5.5-1.9,6-5.1C298.9,134.8,298.7,133.6,297.9,132.7z M332,136.1c-1,6.2-6.3,10.8-12.5,10.8
		c-3,0-5.6-1.1-7.3-3c-1.7-2-2.4-4.8-1.9-7.8c0.9-5.6,6.5-10.1,12.4-10.1c3,0,5.7,1.2,7.5,3.2C331.8,131,332.4,133.5,332,136.1z
		 M317,140c0.8,0.9,1.9,1.4,3.2,1.4c2.9,0,5.5-2.4,6-5.4c0.2-1.1-0.1-2.3-0.9-3.2c-0.8-0.9-2.1-1.5-3.4-1.5c-2.7,0-5.5,2.2-5.9,4.8
		C315.8,137.6,316.2,139,317,140z"/>
	<g>
		<path class="st27" d="M13.4,75.5c5.7,0,10.3-6,10.3-13.5s-4.6-13.5-10.3-13.5C7.6,48.5,3,54.6,3,62C3,69.5,7.6,75.5,13.4,75.5"/>
		<path class="st28" d="M178.1,40.9C151.9,44,91.2,51.4,53,68.3c0,0,26.3,11.3,68.9-4.5v0c15.9-6.5,34.4-13.3,56.9-20.5
			c0.7-0.4,0.8-1.3,0.8-1.3C179.4,41,178.6,40.9,178.1,40.9"/>
		<path class="st29" d="M53,68.3l14.6-14.7c1.5-2.2,0-2.2-0.9-2.1c-14,4.8-55.6,21.7-56.3,51c-0.1,0.5-0.1,1-0.1,1.5
			c18.1-0.4,36.7-6.2,51.5-12.3c0.8-0.4,2.3-1,2.3-1c16.2-6.9,27.4-13.9,27.4-13.9c9.1-4.1,19.1-8.5,30.3-13v0
			C79.3,79.6,53,68.3,53,68.3"/>
		<path class="st30" d="M10.4,104.1c0,1.5,0.1,3,0.5,4.5c0,0.1,0,0.2,0,0.3l0,0c1.2,4.8,4.3,10,9.7,15.4c0.6,0.4,1.6,0.6,2.4-0.6
			c2.2-4.6,9-15.3,38.9-31.9C47,97.8,28.4,103.6,10.4,104.1z M91.6,76.8c0,0-11.2,7-27.4,13.9L51,126c21-13.6,32.1-22.7,36.5-33.3
			c0-0.1,0.1-0.2,0.1-0.3C90.4,85.8,91.9,80.3,91.6,76.8z"/>
		<path d="M30.5,185.8c11-14.5,46.3-64.3,57.5-94.1c-4.1,11.1-15.3,20.3-37,34.3l-8.3,22.2l-13.7,36.7
			C28.9,185.4,29.7,186.8,30.5,185.8L30.5,185.8z"/>
	</g>
</g>
<path class="st26" d="M476,153.3h20.3V91.5H512V73.7h-51.7v17.9H476V153.3z M355.4,73.7l20.6,79.6h18.4l11.9-51.6h0.2l11.9,51.6
	h17.9l21.1-79.6h-20.6l-10.9,52h-0.2l-11.5-52h-15.6l-11.7,51.8h-0.2l-10.7-51.8H355.4z"/>
</svg>
