<?xml version="1.0" encoding="utf-8"?>
<!-- Generator: Adobe Illustrator 25.1.0, SVG Export Plug-In . SVG Version: 6.00 Build 0)  -->
<svg version="1.1" id="Layer_1" xmlns="http://www.w3.org/2000/svg" xmlns:xlink="http://www.w3.org/1999/xlink" x="0px" y="0px"
	 viewBox="0 0 512 192" style="enable-background:new 0 0 512 192;" xml:space="preserve">
<style type="text/css">
	.st0{fill-rule:evenodd;clip-rule:evenodd;}
	.st1{fill-rule:evenodd;clip-rule:evenodd;fill:#44BCC3;}
	.st2{fill-rule:evenodd;clip-rule:evenodd;fill:#444994;}
	.st3{clip-path:url(#SVGID_10_);fill:url(#SVGID_11_);}
	.st4{clip-path:url(#SVGID_13_);fill:url(#SVGID_14_);}
	.st5{clip-path:url(#SVGID_16_);fill:url(#SVGID_17_);}
	.st6{clip-path:url(#SVGID_19_);fill:url(#SVGID_20_);}
	.st7{clip-path:url(#SVGID_22_);fill:url(#SVGID_23_);}
	.st8{clip-path:url(#SVGID_25_);fill:url(#SVGID_26_);}
	.st9{clip-path:url(#SVGID_28_);fill:url(#SVGID_29_);}
	.st10{fill-rule:evenodd;clip-rule:evenodd;fill:#006B49;}
	.st11{fill:#444994;}
	.st12{clip-path:url(#SVGID_30_);fill:url(#SVGID_31_);}
	.st13{clip-path:url(#SVGID_32_);fill:url(#SVGID_33_);}
	.st14{clip-path:url(#SVGID_34_);fill:url(#SVGID_35_);}
	.st15{clip-path:url(#SVGID_36_);fill:url(#SVGID_37_);}
	.st16{clip-path:url(#SVGID_38_);fill:url(#SVGID_39_);}
	.st17{clip-path:url(#SVGID_40_);fill:url(#SVGID_41_);}
	.st18{clip-path:url(#SVGID_42_);fill:url(#SVGID_43_);}
	.st19{clip-path:url(#SVGID_44_);fill:url(#SVGID_45_);}
	.st20{fill:#00A551;}
	.st21{clip-path:url(#SVGID_47_);fill:url(#SVGID_48_);}
	.st22{clip-path:url(#SVGID_50_);fill:url(#SVGID_51_);}
	.st23{clip-path:url(#SVGID_53_);fill:url(#SVGID_54_);}
	.st24{clip-path:url(#SVGID_56_);fill:url(#SVGID_57_);}
	.st25{fill:#231F20;}
	.st26{fill:#5A5A5D;}
	.st27{fill:#29A457;}
	.st28{fill:#21409A;}
	.st29{fill:#DA2128;}
	.st30{fill:#FCB134;}
	.st31{fill:#FFFFFF;}
	.st32{fill-rule:evenodd;clip-rule:evenodd;fill:#3C75BA;}
	.st33{fill:#F8C713;}
	.st34{fill-rule:evenodd;clip-rule:evenodd;fill:#F8C713;}
	.st35{fill-rule:evenodd;clip-rule:evenodd;stroke:#FFFFFF;stroke-width:0.4;stroke-miterlimit:22.9256;}
	.st36{fill:#44BCC3;}
</style>
<g>
	<path class="st1" d="M98.4,1.2c-40.9-3.9-86,31.7-95.6,71.3c-0.8,3.4-1.3,5.9-1.9,9.1l-1,8.6c-0.1,1.9,0,2.9,0,4.8
		c0.6,22.4,4.3,37.5,17.6,56.1c15.9,22.2,39.2,35.9,65.8,39.7l1.4,0.2c0.1,0,0.3,0,0.5,0l18.1,0.1c19.1-1.5,41.3-10.5,55.4-24.3
		c-13.6,11.8-31.3,17-48,19.1c-4.1,0.5-7.8,0.3-11.8,0c-12.4-0.8-21-1.8-34.4-8.5c-28-14-46.4-37.6-49.6-69
		c-0.6-6.2-2.5-17.4,0-23.2c-1-1.7,0.7-3.8,1-5.6c0.2-0.9,0.3-1.8,0.5-2.7c6.2-30.7,28.9-55.1,58.8-64.9c31.3-10.2,69-2.5,91.6,22.1
		c-16.6-18.3-40-31.4-64.3-32.8C101.5,1.4,99.6,1.2,98.4,1.2"/>
	<path class="st2" d="M91.8,7c-28-2.7-61.1,16.4-76.3,39.4C9.5,55.6,5.7,62.4,3,73.3c-0.8,3.2-1.2,5.5-1.7,8.4l-0.9,8
		c-0.1,1.8,0,2.7,0,4.5c0.6,20.8,4,34.8,16.3,52.1c14.8,20.7,36.5,33.4,61.2,36.9l1.3,0.1c0.1,0,0.3,0,0.5,0l16.8,0.1
		c17.7-1.4,38.3-9.8,51.4-22.6c-12.7,10.9-29.1,15.8-44.6,17.7c-3.8,0.5-7.2,0.3-11,0c-11.5-0.8-19.5-1.6-31.9-7.9
		c-26-13-42.5-35.2-45.5-64.3c-0.6-5.7-0.9-16.3,0.1-21.5c0.4-2,0.6-3.5,0.9-5.2c5-29.7,25.7-53.3,54.4-62.6
		c7.2-2.3,20.5-4.7,27.9-4.3c20.7,0.9,43.1,9.6,57.2,24.9c-15.4-17-37.1-29.2-59.7-30.5C94.7,7.3,92.9,7.3,91.8,7"/>
	<g>
		<defs>
			<path id="SVGID_8_" d="M80.4,58.1h3c3.4,0,6,0.7,7.7,2c1.7,1.3,2.5,3.4,2.5,6.1c0,2.6-0.9,4.7-2.6,6.1c-1.8,1.4-4.3,2.1-7.5,2.1
				h-3.1V58.1z M68.6,107.7h11.8V84.6h4.4c6.5,0,11.6-1.7,15.4-5.2c3.8-3.4,5.7-8,5.7-13.8c0-3.1-0.7-6.1-2.1-8.9
				c-1.4-2.8-3.4-5-5.9-6.7c-1.4-0.9-3.1-1.6-5.3-2c-2.2-0.4-5.2-0.6-9-0.6h-15V107.7z"/>
		</defs>
		<clipPath id="SVGID_10_">
			<use xlink:href="#SVGID_8_"  style="overflow:visible;"/>
		</clipPath>
		<linearGradient id="SVGID_11_" gradientUnits="userSpaceOnUse" x1="87.228" y1="98.968" x2="87.228" y2="47.598">
			<stop  offset="0" style="stop-color:#312F77"/>
			<stop  offset="0.7755" style="stop-color:#3E9FB4"/>
			<stop  offset="1" style="stop-color:#42C0C6"/>
		</linearGradient>
		<rect x="68.6" y="47.5" class="st3" width="37.3" height="60.2"/>
	</g>
	<g>
		<defs>
			<path id="SVGID_7_" d="M118.6,57.3h4.4c4.4,0,7.6,0.8,9.7,2.3c2.1,1.5,3.1,3.9,3.1,7.1c0,3.3-1.2,5.8-3.7,7.5
				c-2.5,1.7-6.1,2.6-10.9,2.6h-2.6V57.3z M106.8,107.7h11.8v-28l15.6,28h14.1l-15.1-23.4c4.4-0.9,7.9-2.9,10.5-6.2
				c2.6-3.2,3.8-7.2,3.8-11.9c0-3.9-0.9-7.2-2.7-10.1c-1.8-2.9-4.4-5.1-7.8-6.7c-1.6-0.7-3.5-1.2-5.7-1.6c-2.2-0.3-5.6-0.5-10.2-0.5
				h-14.3V107.7z"/>
		</defs>
		<clipPath id="SVGID_13_">
			<use xlink:href="#SVGID_7_"  style="overflow:visible;"/>
		</clipPath>
		<linearGradient id="SVGID_14_" gradientUnits="userSpaceOnUse" x1="127.5213" y1="98.968" x2="127.5213" y2="47.598">
			<stop  offset="0" style="stop-color:#312F77"/>
			<stop  offset="0.7755" style="stop-color:#3E9FB4"/>
			<stop  offset="1" style="stop-color:#42C0C6"/>
		</linearGradient>
		<rect x="106.8" y="47.5" class="st4" width="41.4" height="60.2"/>
	</g>
	<g>
		<defs>
			<path id="SVGID_6_" d="M170.8,95.1c-2.3-1.1-4.4-2.6-6.3-4.7c-1.7-1.8-3-3.9-3.8-6.1c-0.9-2.2-1.3-4.6-1.3-7.2
				c0-5.2,1.8-9.5,5.5-13.2c3.7-3.6,8.1-5.4,13.4-5.4c5,0,9.4,1.8,13,5.4c3.6,3.6,5.4,8,5.4,13.1c0,5.6-1.8,10.3-5.4,14
				c-3.6,3.8-8,5.6-13.3,5.6C175.5,96.7,173.1,96.2,170.8,95.1 M147,77.3v0.2c0,4.2,0.7,8.2,2.2,11.9c1.5,3.7,3.6,7.1,6.4,10
				c2.9,3.1,6.3,5.5,10.1,7.1c3.8,1.6,7.9,2.4,12.4,2.4c4.2,0,8.2-0.8,12.1-2.5c3.8-1.6,7.2-4,10.1-7.1c2.9-2.9,5-6.3,6.5-10.1
				c1.5-3.8,2.2-7.8,2.2-12.1c0-4.1-0.8-8.1-2.4-11.8c-1.6-3.7-3.9-7.1-6.9-10.1c-2.9-2.9-6.2-5.1-9.9-6.7
				c-3.7-1.5-7.6-2.3-11.6-2.3c-5.3,0-10.2,1.2-14.7,3.5c-4.5,2.4-8.2,5.7-11.2,10c-1.7,2.6-3,5.3-3.9,8.3
				C147.5,71,147,74.1,147,77.3z"/>
		</defs>
		<clipPath id="SVGID_16_">
			<use xlink:href="#SVGID_6_"  style="overflow:visible;"/>
		</clipPath>
		<linearGradient id="SVGID_17_" gradientUnits="userSpaceOnUse" x1="177.9862" y1="98.968" x2="177.9862" y2="47.598">
			<stop  offset="0" style="stop-color:#312F77"/>
			<stop  offset="0.7755" style="stop-color:#3E9FB4"/>
			<stop  offset="1" style="stop-color:#42C0C6"/>
		</linearGradient>
		<rect x="147" y="46.3" class="st5" width="61.9" height="62.6"/>
	</g>
	<g>
		<defs>
			<path id="SVGID_5_" d="M227.7,48.5c-3.6,1.5-6.8,3.7-9.7,6.5c-3.1,3.1-5.4,6.5-7,10.3c-1.6,3.8-2.4,7.7-2.4,11.9
				c0,4.1,0.7,8,2,11.6c1.3,3.6,3.3,6.9,5.8,9.7c3,3.4,6.5,6,10.3,7.7c3.8,1.7,8,2.6,12.5,2.6c6.5,0,12.1-1.5,16.8-4.6
				c4.7-3.1,8.4-7.7,11.3-13.9h-14.4c-1.5,2.1-3.4,3.7-5.7,4.8c-2.4,1.1-5,1.7-8,1.7c-5.1,0-9.5-1.9-13-5.6
				c-3.5-3.7-5.3-8.4-5.3-13.9c0-2.5,0.5-5,1.5-7.3c1-2.4,2.4-4.5,4.2-6.3c1.7-1.7,3.6-3.1,5.8-4c2.2-0.9,4.5-1.4,6.9-1.4
				c3,0,5.7,0.6,8,1.7c2.4,1.2,4.4,2.9,6.1,5.2h14.4c-3-6.4-6.8-11.2-11.5-14.4c-4.7-3.1-10.3-4.7-16.9-4.7
				C235.1,46.3,231.3,47,227.7,48.5"/>
		</defs>
		<clipPath id="SVGID_19_">
			<use xlink:href="#SVGID_5_"  style="overflow:visible;"/>
		</clipPath>
		<linearGradient id="SVGID_20_" gradientUnits="userSpaceOnUse" x1="238.0729" y1="98.968" x2="238.0729" y2="47.598">
			<stop  offset="0" style="stop-color:#312F77"/>
			<stop  offset="0.7755" style="stop-color:#3E9FB4"/>
			<stop  offset="1" style="stop-color:#42C0C6"/>
		</linearGradient>
		<rect x="208.5" y="46.3" class="st6" width="59.1" height="62.6"/>
	</g>
	<g>
		<defs>
			<path id="SVGID_4_" d="M290.5,95.1c-2.3-1.1-4.4-2.6-6.3-4.7c-1.7-1.8-3-3.9-3.8-6.1c-0.9-2.2-1.3-4.6-1.3-7.2
				c0-5.2,1.8-9.5,5.5-13.2c3.7-3.6,8.1-5.4,13.4-5.4c5,0,9.4,1.8,13,5.4c3.6,3.6,5.4,8,5.4,13.1c0,5.6-1.8,10.3-5.4,14
				c-3.6,3.8-8,5.6-13.3,5.6C295.3,96.7,292.8,96.2,290.5,95.1 M266.7,77.3v0.2c0,4.2,0.7,8.2,2.2,11.9c1.4,3.7,3.6,7.1,6.4,10
				c2.9,3.1,6.3,5.5,10.1,7.1c3.8,1.6,7.9,2.4,12.4,2.4c4.2,0,8.2-0.8,12.1-2.5c3.8-1.6,7.2-4,10.1-7.1c2.9-2.9,5-6.3,6.5-10.1
				c1.5-3.8,2.2-7.8,2.2-12.1c0-4.1-0.8-8.1-2.4-11.8c-1.6-3.7-3.9-7.1-6.9-10.1c-2.9-2.9-6.2-5.1-9.9-6.7
				c-3.7-1.5-7.6-2.3-11.6-2.3c-5.3,0-10.2,1.2-14.7,3.5c-4.5,2.4-8.2,5.7-11.2,10c-1.7,2.6-3,5.3-3.9,8.3
				C267.2,71,266.8,74.1,266.7,77.3z"/>
		</defs>
		<clipPath id="SVGID_22_">
			<use xlink:href="#SVGID_4_"  style="overflow:visible;"/>
		</clipPath>
		<linearGradient id="SVGID_23_" gradientUnits="userSpaceOnUse" x1="297.7021" y1="98.968" x2="297.7021" y2="47.598">
			<stop  offset="0" style="stop-color:#312F77"/>
			<stop  offset="0.7755" style="stop-color:#3E9FB4"/>
			<stop  offset="1" style="stop-color:#42C0C6"/>
		</linearGradient>
		<rect x="266.7" y="46.3" class="st7" width="61.9" height="62.6"/>
	</g>
	<g>
		<defs>
			<polygon id="SVGID_3_" points="330.7,107.7 342.3,107.7 342.3,68.1 367.4,107.7 378.3,107.7 378.3,47.5 366.8,47.5 366.8,85.9 
				341.9,47.5 330.7,47.5 			"/>
		</defs>
		<clipPath id="SVGID_25_">
			<use xlink:href="#SVGID_3_"  style="overflow:visible;"/>
		</clipPath>
		<linearGradient id="SVGID_26_" gradientUnits="userSpaceOnUse" x1="354.5402" y1="98.968" x2="354.5402" y2="47.598">
			<stop  offset="0" style="stop-color:#312F77"/>
			<stop  offset="0.7755" style="stop-color:#3E9FB4"/>
			<stop  offset="1" style="stop-color:#42C0C6"/>
		</linearGradient>
		<rect x="330.7" y="47.5" class="st8" width="47.6" height="60.2"/>
	</g>
	<g>
		<defs>
			<path id="SVGID_2_" d="M411.9,107.8h29.7L451,96h-38.4c-5.1,0-9.7-2.1-13-5.4c-3.3-3.3-5.4-7.9-5.4-13c0-10.1,8.3-18.4,18.4-18.4
				H451l-9.6-12h-29.5c-8.3,0-15.9,3.4-21.4,8.9c-5.5,5.5-8.9,13.1-8.9,21.4C381.6,94.1,395.2,107.8,411.9,107.8"/>
		</defs>
		<clipPath id="SVGID_28_">
			<use xlink:href="#SVGID_2_"  style="overflow:visible;"/>
		</clipPath>
		<linearGradient id="SVGID_29_" gradientUnits="userSpaceOnUse" x1="416.2909" y1="110.3764" x2="416.2909" y2="69.682">
			<stop  offset="0" style="stop-color:#312F77"/>
			<stop  offset="0.7755" style="stop-color:#3E9FB4"/>
			<stop  offset="1" style="stop-color:#42C0C6"/>
		</linearGradient>
		<rect x="381.6" y="47.1" class="st9" width="69.4" height="60.6"/>
	</g>
	<polygon class="st10" points="464.2,71.8 411.3,71.8 411.3,83.5 464,83.5 468.8,77.5 	"/>
	<polygon class="st10" points="450.7,107.8 464.7,107.8 489.5,77.5 474.1,59.2 474.2,59.2 463.9,47.1 450.4,47.1 464.5,64.8 
		464.5,64.8 474.7,77.5 	"/>
	<polygon class="st11" points="495.6,47.2 482.8,62.8 490.2,71.8 509.1,47.2 	"/>
	<polygon class="st11" points="490,83.4 509.1,107.7 495.3,107.7 482.8,92.5 	"/>
	<g>
		<defs>
			<path id="SVGID_1_" d="M501.2,121.9v-0.1c0-0.3-0.2-0.5-0.6-0.5h-12.4l-2.3,11.2h12.4c0.4,0,0.7-0.2,0.9-0.6L501.2,121.9z
				 M479.6,113.8h26.1c4.2,0,6.2,1.5,6.2,4.6c0,0.6-0.1,1.2-0.2,1.8l-2.8,13.5c-0.9,4.3-3.8,6.4-8.7,6.4h-26.1L479.6,113.8z
				 M449,140l3.9-18.7h-12.1l1.6-7.5h34.4l-1.6,7.5h-12.1l-3.9,18.7H449z M430.5,113.8l-3.9,18.7H445l-1.6,7.5h-28.7l5.5-26.3H430.5
				z M376.9,140l3.9-18.7h-12.1l1.6-7.5h34.4l-1.6,7.5H391l-3.9,18.7H376.9z M344.2,131.7l13.2-17.9h11.3l-0.1,0.4L350.2,138
				c-0.6,0.7-1.2,1.3-1.9,1.6c-0.7,0.3-1.5,0.5-2.3,0.5h-7.1c-0.8,0-1.5-0.2-2.1-0.5c-0.6-0.3-1-0.9-1.3-1.6l-8.4-23.8l0.1-0.4h11.3
				L344.2,131.7z M315,121.9v-0.1c0-0.3-0.2-0.5-0.6-0.5h-12.3l-0.9,4.2h12.3c0.4,0,0.7-0.2,0.9-0.6L315,121.9z M293.5,113.8h25.9
				c4.2,0,6.2,1.5,6.2,4.6c0,0.6-0.1,1.2-0.2,1.8l-1.3,6.3c-0.9,4.3-3.8,6.4-8.7,6.4h-15.7l-1.5,7.2H288L293.5,113.8z M267.2,123.3
				c4.2,0,6.2,1.5,6.2,4.6c0,0.6-0.1,1.2-0.2,1.8l-0.9,4c-0.9,4.3-3.8,6.4-8.7,6.4h-24.4l1.6-7.5h21c0.4,0,0.7-0.2,0.9-0.6l0.3-1.6
				c0,0,0-0.1,0-0.1c0,0,0,0,0-0.1c0-0.3-0.2-0.5-0.6-0.5h-13.7c-4.1,0-6.2-1.5-6.2-4.6c0-0.6,0.1-1.2,0.2-1.8l0.6-3.1
				c0.9-4.3,3.8-6.4,8.7-6.4h23.5l-1.6,7.5h-20.1c-0.5,0-0.7,0.2-0.8,0.6l-0.1,0.7c0,0,0,0.1,0,0.2c0,0.3,0.2,0.4,0.6,0.4H267.2z
				 M215.1,140l3.9-18.7h-12.1l1.6-7.5h34.4l-1.6,7.5h-12.1l-3.9,18.7H215.1z M194.6,121.8c0,0,0-0.1,0-0.1c0,0,0,0,0-0.1
				c0-0.3-0.2-0.5-0.6-0.5h-12.3l-0.8,3.7h12.3c0.5,0,0.8-0.2,0.9-0.6L194.6,121.8z M173.1,113.8H199c4.2,0,6.2,1.5,6.2,4.6
				c0,0.6-0.1,1.2-0.2,1.8l-1,4.7c-0.4,1.9-1.2,3.4-2.4,4.4c-1.2,1-2.8,1.7-4.8,1.9l5.4,8.5l-0.1,0.4h-11.3l-5.4-8.8h-5.8l-1.8,8.8
				h-10.2L173.1,113.8z M144.8,121.3c-0.5,0-0.7,0.2-0.8,0.6l-2.1,9.9c0,0,0,0.1,0,0.2c0,0.3,0.2,0.4,0.6,0.4H154
				c0.4,0,0.7-0.2,0.9-0.6l2.1-9.9v-0.1c0-0.3-0.2-0.5-0.6-0.5H144.8z M137.3,140c-4.2,0-6.3-1.5-6.3-4.6c0-0.5,0.1-1.1,0.2-1.8
				l2.8-13.5c0.9-4.3,3.8-6.4,8.7-6.4h18.7c4.2,0,6.2,1.5,6.2,4.6c0,0.6-0.1,1.2-0.2,1.8l-2.8,13.5c-0.9,4.3-3.8,6.4-8.7,6.4H137.3z
				 M120.5,121.9v-0.1c0-0.3-0.2-0.5-0.6-0.5h-12.3l-0.9,4.2H119c0.4,0,0.7-0.2,0.9-0.6L120.5,121.9z M98.9,113.8h25.9
				c4.2,0,6.2,1.5,6.2,4.6c0,0.6-0.1,1.2-0.2,1.8l-1.3,6.3c-0.9,4.3-3.8,6.4-8.7,6.4h-15.7l-1.5,7.2H93.4L98.9,113.8z M86,123.3
				c4.2,0,6.2,1.5,6.2,4.6c0,0.6-0.1,1.2-0.2,1.8l-0.9,4c-0.9,4.3-3.8,6.4-8.7,6.4H58.1l1.6-7.5h21c0.5,0,0.7-0.2,0.9-0.6l0.3-1.6
				c0,0,0-0.1,0-0.1c0,0,0,0,0-0.1c0-0.3-0.2-0.5-0.6-0.5H67.5c-4.1,0-6.2-1.5-6.2-4.6c0-0.6,0.1-1.2,0.2-1.8l0.6-3.1
				c0.9-4.3,3.8-6.4,8.7-6.4h23.5l-1.6,7.5H72.7c-0.5,0-0.7,0.2-0.8,0.6l-0.1,0.7c0,0,0,0.1,0,0.2c0,0.3,0.2,0.4,0.6,0.4H86z"/>
		</defs>
		<clipPath id="SVGID_30_">
			<use xlink:href="#SVGID_1_"  style="overflow:visible;"/>
		</clipPath>
		<linearGradient id="SVGID_31_" gradientUnits="userSpaceOnUse" x1="285.5142" y1="113.8822" x2="284.2395" y2="148.968">
			<stop  offset="0" style="stop-color:#42C0C6"/>
			<stop  offset="0.1088" style="stop-color:#40AEBC"/>
			<stop  offset="0.5346" style="stop-color:#386A97"/>
			<stop  offset="0.8429" style="stop-color:#333F80"/>
			<stop  offset="1" style="stop-color:#312F77"/>
		</linearGradient>
		<rect x="58.1" y="113.8" class="st12" width="453.9" height="26.3"/>
	</g>
	<path class="st20" d="M403.7,140c-1.3,0-1.9-0.5-1.9-1.4c0-0.1,0-0.2,0-0.3c0-0.1,0-0.2,0.1-0.3l0.7-3.6c0.3-1.3,1.2-2,2.7-2h5
		c1.3,0,1.9,0.5,1.9,1.4c0,0.1,0,0.2,0,0.3c0,0.1,0,0.2-0.1,0.3l-0.7,3.6c-0.3,1.3-1.2,1.9-2.7,1.9H403.7z"/>
</g>
</svg>
