<?xml version="1.0" encoding="utf-8"?>
<!-- Generator: Adobe Illustrator 25.1.0, SVG Export Plug-In . SVG Version: 6.00 Build 0)  -->
<svg version="1.1" id="Layer_1" xmlns="http://www.w3.org/2000/svg" xmlns:xlink="http://www.w3.org/1999/xlink" x="0px" y="0px"
	 viewBox="0 0 512 512" style="enable-background:new 0 0 512 512;" xml:space="preserve">
<style type="text/css">
	.st0{fill-rule:evenodd;clip-rule:evenodd;}
	.st1{fill-rule:evenodd;clip-rule:evenodd;fill:#44BCC3;}
	.st2{fill-rule:evenodd;clip-rule:evenodd;fill:#444994;}
	.st3{clip-path:url(#SVGID_10_);fill:url(#SVGID_11_);}
	.st4{clip-path:url(#SVGID_13_);fill:url(#SVGID_14_);}
	.st5{clip-path:url(#SVGID_16_);fill:url(#SVGID_17_);}
	.st6{clip-path:url(#SVGID_19_);fill:url(#SVGID_20_);}
	.st7{clip-path:url(#SVGID_22_);fill:url(#SVGID_23_);}
	.st8{clip-path:url(#SVGID_25_);fill:url(#SVGID_26_);}
	.st9{clip-path:url(#SVGID_28_);fill:url(#SVGID_29_);}
	.st10{fill-rule:evenodd;clip-rule:evenodd;fill:#006B49;}
	.st11{fill:#444994;}
	.st12{clip-path:url(#SVGID_30_);fill:url(#SVGID_31_);}
	.st13{clip-path:url(#SVGID_32_);fill:url(#SVGID_33_);}
	.st14{clip-path:url(#SVGID_34_);fill:url(#SVGID_35_);}
	.st15{clip-path:url(#SVGID_36_);fill:url(#SVGID_37_);}
	.st16{clip-path:url(#SVGID_38_);fill:url(#SVGID_39_);}
	.st17{clip-path:url(#SVGID_40_);fill:url(#SVGID_41_);}
	.st18{clip-path:url(#SVGID_42_);fill:url(#SVGID_43_);}
	.st19{clip-path:url(#SVGID_44_);fill:url(#SVGID_45_);}
	.st20{fill:#00A551;}
	.st21{clip-path:url(#SVGID_47_);fill:url(#SVGID_48_);}
	.st22{clip-path:url(#SVGID_50_);fill:url(#SVGID_51_);}
	.st23{clip-path:url(#SVGID_53_);fill:url(#SVGID_54_);}
	.st24{clip-path:url(#SVGID_56_);fill:url(#SVGID_57_);}
	.st25{fill:#231F20;}
	.st26{fill:#5A5A5D;}
	.st27{fill:#29A457;}
	.st28{fill:#21409A;}
	.st29{fill:#DA2128;}
	.st30{fill:#FCB134;}
	.st31{fill:#FFFFFF;}
	.st32{fill-rule:evenodd;clip-rule:evenodd;fill:#3C75BA;}
	.st33{fill:#F8C713;}
	.st34{fill-rule:evenodd;clip-rule:evenodd;fill:#F8C713;}
	.st35{fill-rule:evenodd;clip-rule:evenodd;stroke:#FFFFFF;stroke-width:0.4;stroke-miterlimit:22.9256;}
	.st36{fill:#44BCC3;}
</style>
<path class="st35" d="M239.5,64.4l5.4,2c0.8,0.2,4.3,1.4,5.3,1.7c39.4,13.1,12.6,31.4,76.6,29.7c-7.5,17.8-8.9,10-29.2,5.9
	c-51.5-10.4-73-28.4-114.2-46.3c-32-13.9-35.2-19.3-74-29C79.1,20.9,56.3,4.2,24,13.3l16.6,26.5c15.8-3.6,12-9.1,35.7-1.9
	c11.7,3.5,20.9,10.7,30.3,16.8c0.9,14.1-5.4,13.9,1.7,21.5c10.5,11.1,10.7,1.1,23.7,9.6c10.8,7.1,22.1,20.8,34.7,28.5
	c19.5,11.9,22.4,13.8,37,26.3c16.6,14.2,23.8,13,40.5,23.1c10.1,52.5-10.7,85.3-3.6,97.3c18.2-7,3.5-9.2,17-23.8
	c4.9,9,13.7,17.6,14.4,29.7c0.5,9.5-2.4,14.9-3.6,23.4c-2.7,19.8-2.6,10.2,5.6,12.9c7.3-12.8,0.9-27.7,10-41.5c0.4,0.6,0.8,1,0.8,2
	c2.1,33.8-4.1,10-3.3,56.5c0.4,25.9-3.4,43.6-4.7,66.7c20.7,16.7,18.3,8,20.6,40.5c1.9,26.4-5.3,36.8-6,56.2
	c12.8,10.7,8.5,1.3,21.4,14.6c11.3,11.7,12.3,13.5,28.7,6.4c8-27.6-24-15.5-24-54.3c0-11.3,2.6-24,6.1-34.3
	c18.4-53.2,4.2-90,9.7-109.8l15.8-47c2.4-13-4.4-5.3,2.8-15c5.8-7.8,29.6-18.4,40.9-15.8c11,2.5,0.6,11,58,2.4
	c48-7.2,39.3-67.2,30-83.7c-9.9-17.6-16-3-20.8-22.1c-4.9-19.8-0.1-14.8-8.2-34.8c7.3-12.8,19.1-17.1,23.8-35.4
	c5.3-20.7-4.4-36.6-16.9-42.3c-16-7.2-42.3-3.9-49.7,6.2c-4.9,6.8-5.1,14.8-6.9,22.2c-3.9,15.5-5.7,12-10.2,24
	c-44.1-25.6-29.8-4.9-80.5-17.9c-30-7.7-49.2-10.7-76.4-21.6c-23-9.3-12.9-7.1-26.6-20.1c-13.4-12.7-25.6-2-23.1,14.2
	c2.5,16.5,14.3,13.2,30.6,18.6C233.4,44.1,232.7,51.6,239.5,64.4z M378.8,210.5l52.1-22.5c-0.7,15.5,6.7,10.7-7.8,14.5
	c-6.9,1.8-7.8-1.6-17.9,2.1C395.3,208.1,394.8,215.3,378.8,210.5z"/>
</svg>
