<?xml version="1.0" encoding="utf-8"?>
<!-- Generator: Adobe Illustrator 25.1.0, SVG Export Plug-In . SVG Version: 6.00 Build 0)  -->
<svg version="1.1" id="Layer_1" xmlns="http://www.w3.org/2000/svg" xmlns:xlink="http://www.w3.org/1999/xlink" x="0px" y="0px"
	 viewBox="0 0 512 512" style="enable-background:new 0 0 512 512;" xml:space="preserve">
<style type="text/css">
	.st0{fill-rule:evenodd;clip-rule:evenodd;}
	.st1{fill-rule:evenodd;clip-rule:evenodd;fill:#44BCC3;}
	.st2{fill-rule:evenodd;clip-rule:evenodd;fill:#444994;}
	.st3{clip-path:url(#SVGID_10_);fill:url(#SVGID_11_);}
	.st4{clip-path:url(#SVGID_13_);fill:url(#SVGID_14_);}
	.st5{clip-path:url(#SVGID_16_);fill:url(#SVGID_17_);}
	.st6{clip-path:url(#SVGID_19_);fill:url(#SVGID_20_);}
	.st7{clip-path:url(#SVGID_22_);fill:url(#SVGID_23_);}
	.st8{clip-path:url(#SVGID_25_);fill:url(#SVGID_26_);}
	.st9{clip-path:url(#SVGID_28_);fill:url(#SVGID_29_);}
	.st10{fill-rule:evenodd;clip-rule:evenodd;fill:#006B49;}
	.st11{fill:#444994;}
	.st12{clip-path:url(#SVGID_30_);fill:url(#SVGID_31_);}
	.st13{clip-path:url(#SVGID_32_);fill:url(#SVGID_33_);}
	.st14{clip-path:url(#SVGID_34_);fill:url(#SVGID_35_);}
	.st15{clip-path:url(#SVGID_36_);fill:url(#SVGID_37_);}
	.st16{clip-path:url(#SVGID_38_);fill:url(#SVGID_39_);}
	.st17{clip-path:url(#SVGID_40_);fill:url(#SVGID_41_);}
	.st18{clip-path:url(#SVGID_42_);fill:url(#SVGID_43_);}
	.st19{clip-path:url(#SVGID_44_);fill:url(#SVGID_45_);}
	.st20{fill:#00A551;}
	.st21{clip-path:url(#SVGID_47_);fill:url(#SVGID_48_);}
	.st22{clip-path:url(#SVGID_50_);fill:url(#SVGID_51_);}
	.st23{clip-path:url(#SVGID_53_);fill:url(#SVGID_54_);}
	.st24{clip-path:url(#SVGID_56_);fill:url(#SVGID_57_);}
	.st25{fill:#231F20;}
	.st26{fill:#5A5A5D;}
	.st27{fill:#29A457;}
	.st28{fill:#21409A;}
	.st29{fill:#DA2128;}
	.st30{fill:#FCB134;}
	.st31{fill:#FFFFFF;}
	.st32{fill-rule:evenodd;clip-rule:evenodd;fill:#3C75BA;}
	.st33{fill:#F8C713;}
	.st34{fill-rule:evenodd;clip-rule:evenodd;fill:#F8C713;}
	.st35{fill-rule:evenodd;clip-rule:evenodd;stroke:#FFFFFF;stroke-width:0.4;stroke-miterlimit:22.9256;}
	.st36{fill:#44BCC3;}
</style>
<path class="st35" d="M430.4,48.5c28.4-37.6,32-18.2,39.1-43.7c-17.4-6.6-24.9-2.9-35.6,7.5l-76.1,84.2
	c-24.6,40.5-14.7,28.1-55.6,51c-29.8,16.7-43.1,21.6-75.9,7.8c5.6-16.2-1.4-6.1,15.5-17.6c23.7,5.7-3.8,1.5,18.3,11.3l26-39.3
	L271,93.1c-20.1,2.2-71.9,36.1-89.5,42.1l-5.9-24c-28.8-1.3-30.5-0.7-49.5,10.2c-5.6,38.2,15.1,19.2,0.2,58.6
	c-7.6,20.2-13.4,25.9-23.4,39.9l-58.6,71.6c5.1,12.6,7.4,9.1,4.8,21c-2.8,13-10.3-9.9-4.4,20.4c24.9-3,28.4-28.3,60.5-52
	c23.8-17.6,29.1-38.3,78.4-39.5l58.6,6.9c-15.9,9.8-56,16.1-54.6,28.2c10.6,5.5,7.8-5.3,34.8-8.5c6,16.7-5-19.6-0.6,11.7
	c0.1,0.7,0.7,4,1.7,5.3c12.2-4.5,2.4-0.1,12.7-9.2l8.9-8.3c0.5-2,2.1-2.1,3.3-3c-0.2,34.9-2.8,66.2-3.2,99.8
	c-0.7,56.1,8.4,55.8,19.7,63.8c0.7,0.5,2.9,3,3.4,2c0.5-1,2.5,1.1,3.5,2c1.5,39.1-9.7,53.2-21,78.5c33.8-10,9.1-13,54.2-34.3
	c-5.2-29.3-12.9-21.3-7.4-61.2c4-29.4-3.7-32.9-6.3-60.7l21.3-119.3c6.8-30.3,40.3-60,59.3-85.4c44-58.6,27.1-34.5,70.1-71.9
	C438,59.9,435.8,65.6,430.4,48.5z"/>
</svg>
