<?xml version="1.0" encoding="utf-8"?>
<!-- Generator: Adobe Illustrator 25.1.0, SVG Export Plug-In . SVG Version: 6.00 Build 0)  -->
<svg version="1.1" id="Layer_1" xmlns="http://www.w3.org/2000/svg" xmlns:xlink="http://www.w3.org/1999/xlink" x="0px" y="0px"
	 viewBox="0 0 512 512" style="enable-background:new 0 0 512 512;" xml:space="preserve">
<style type="text/css">
	.st0{fill-rule:evenodd;clip-rule:evenodd;}
	.st1{fill-rule:evenodd;clip-rule:evenodd;fill:#44BCC3;}
	.st2{fill-rule:evenodd;clip-rule:evenodd;fill:#444994;}
	.st3{clip-path:url(#SVGID_10_);fill:url(#SVGID_11_);}
	.st4{clip-path:url(#SVGID_13_);fill:url(#SVGID_14_);}
	.st5{clip-path:url(#SVGID_16_);fill:url(#SVGID_17_);}
	.st6{clip-path:url(#SVGID_19_);fill:url(#SVGID_20_);}
	.st7{clip-path:url(#SVGID_22_);fill:url(#SVGID_23_);}
	.st8{clip-path:url(#SVGID_25_);fill:url(#SVGID_26_);}
	.st9{clip-path:url(#SVGID_28_);fill:url(#SVGID_29_);}
	.st10{fill-rule:evenodd;clip-rule:evenodd;fill:#006B49;}
	.st11{fill:#444994;}
	.st12{clip-path:url(#SVGID_30_);fill:url(#SVGID_31_);}
	.st13{clip-path:url(#SVGID_32_);fill:url(#SVGID_33_);}
	.st14{clip-path:url(#SVGID_34_);fill:url(#SVGID_35_);}
	.st15{clip-path:url(#SVGID_36_);fill:url(#SVGID_37_);}
	.st16{clip-path:url(#SVGID_38_);fill:url(#SVGID_39_);}
	.st17{clip-path:url(#SVGID_40_);fill:url(#SVGID_41_);}
	.st18{clip-path:url(#SVGID_42_);fill:url(#SVGID_43_);}
	.st19{clip-path:url(#SVGID_44_);fill:url(#SVGID_45_);}
	.st20{fill:#00A551;}
	.st21{clip-path:url(#SVGID_47_);fill:url(#SVGID_48_);}
	.st22{clip-path:url(#SVGID_50_);fill:url(#SVGID_51_);}
	.st23{clip-path:url(#SVGID_53_);fill:url(#SVGID_54_);}
	.st24{clip-path:url(#SVGID_56_);fill:url(#SVGID_57_);}
	.st25{fill:#231F20;}
	.st26{fill:#5A5A5D;}
	.st27{fill:#29A457;}
	.st28{fill:#21409A;}
	.st29{fill:#DA2128;}
	.st30{fill:#FCB134;}
	.st31{fill:#FFFFFF;}
	.st32{fill-rule:evenodd;clip-rule:evenodd;fill:#3C75BA;}
	.st33{fill:#F8C713;}
	.st34{fill-rule:evenodd;clip-rule:evenodd;fill:#F8C713;}
	.st35{fill-rule:evenodd;clip-rule:evenodd;stroke:#FFFFFF;stroke-width:0.4;stroke-miterlimit:22.9256;}
	.st36{fill:#44BCC3;}
</style>
<g>
	<path class="st0" d="M335.8,90.5c4.2-2.8,2.3-0.2,3.2-5.5c2.1-12.3-4.3-5-2.1-20c0.8-5.2-2-8.8-7.5-6.9c-1.9,0.7-7.2,6.2-10.3,8.3
		c-6.9,4.6-2.8,4.7-8.7,10.3c-10.8,10.3-34.8,25.4-45,46.6c-1.8,3.8-3.1,7.1-6.9,10.2c-19.4,15.9-3.7,8.2-16.6,18.9
		c-5.4,4.4-11.9,16.7-14.5,19.9c-3.6,4.5-5.6,4-10.3,7.5c1.2-3.8,12-14.2,15.2-18.6c-1.2-5.5-2.8-6.4-5.5-11c3.1-3.3,6-6,3.8-11.8
		c-5.7-15.3-28.8-11.6-19.5,8.4c-3.7,2.7-4.4,5.5-8.4,9c-2.3,2-3.5,2.1-6.1,4.3l-13.6,13.2L138,186.9c-13,2.7-13,7.5-21,14.1
		c-0.8-4.6-0.6-4.6,0.8-8.7c-14.6-10.8-10-10.1-15.2-20.7c-28.4-4.5-47.5,18.5-36.1,36.7c2.3,3.7,5.5,6.7,8.1,8.9
		c8.3,7.1,1.8,4.9,7.5,10.1c12.3,11.1,0.5-1.6,8.7,13.7c7,13.1-2.3,27.3,9.7,35c13.5,8.7,12.4,3.7,19.2,7.6c5.5,3.2,1.7,3.2,9.3,4.4
		c5.7,0.9,20.4-3.1,24.3-7c4.1-4.4,3.1-7.2-0.5-14.4c4.2,0.8,3.7,1.8,8.2,1.6l26.9-3.3c3.1,4,5.3,3.7,6.8,6.6
		c1.3,2.4,1.1,7.5,2.4,11.5c5.9,17.9,8.1-7.6,22.8,34.5c3.5,9.9,6.6,7.2,8.8,19.9c2.3,13.3,26.4,47.6,27.1,60.5
		c0.3,5.4-4.2,13.8-6.4,16.8c-7.8,10.9-12.9,7.2-11.9,13.8c9.3,2.7,25-10.3,29.5-11.7c22.4-7.3,4.4-6.2,3.4-29.2
		c9.3-5.7,15.7-9.7,21.3-15.5c-2.1-9.6-11.2-28.8-16.5-37.7c-11.7-19.6-7.5-13.9-14.4-27.6c-1.9-3.9-3-3.3-4.5-8.5
		c-3.1-10.8-3.9-27.7-6.4-40.3c-9.1-44.7,22.5-57.5,33.4-93.1c2.1-6.8,2.8-10.9,8.6-14.3c27.7-16.3,12.6-13.1,25.4-24.1
		c4.5-3.9,8.4-7.7,13.5-11.3l-12.2-23.6c1.2-3.7,4.1-6.6,9-9.9C333.2,88.1,331.2,88.5,335.8,90.5"/>
	<path class="st1" d="M127.2,42.4C31.7,93.8-14.9,237.8,22.3,338.7c3.2,8.7,5.8,14.9,9.2,22.6L42,381.7c2.7,4.3,4.3,6.5,7.2,10.5
		c34.2,48.1,64.4,75.9,120.7,97.2c67.4,25.4,138.6,21.2,202.5-9.5l3.4-1.8c0.3-0.1,0.8-0.4,1.2-0.6l39.9-26.3
		c39.6-31.2,74.9-83.6,85.7-134.4c-12.6,45.8-43.6,83.1-77.2,112.2c-8.2,7.1-16.6,12-25.9,17.4c-28.3,16.3-48.6,26.9-87.8,31.8
		c-81.7,10.3-156.9-14.4-209.8-78.5c-10.4-12.6-31.1-34.4-34-50.7c-4.7-2.2-4-9.2-6.1-13.8c-1-2.3-1.9-4.4-2.9-6.7
		c-31.4-76.3-17.5-163.2,33.9-228.3C146.5,32.1,240.2-6.3,326,14.4C262.9-1.3,192.4,4.2,137.1,36.9
		C134.3,38.4,129.9,40.8,127.2,42.4"/>
	<path class="st2" d="M121.3,65C56,100.1,11.5,190.6,12,263.2c0.2,28.9,1.7,49.4,11.9,77.1c3,8,5.4,13.8,8.6,21l9.7,18.9
		c2.5,4,4,6,6.7,9.8c31.7,44.7,59.8,70.5,112.1,90.3c62.6,23.6,128.8,19.7,188.1-8.8l3.1-1.6c0.2-0.1,0.7-0.4,1.1-0.6l37-24.4
		c36.8-29,69.6-77.6,79.6-124.8c-11.7,42.5-40.5,77.2-71.7,104.2c-7.6,6.6-15.4,11.2-24,16.1c-26.3,15.2-45.1,25-81.5,29.6
		c-75.9,9.6-144.8-14.8-193.9-74.3c-9.7-11.7-25.8-34.5-31.2-47.2c-2.1-4.9-3.7-8.6-5.6-12.8c-32.6-72.4-21.7-154.4,27.4-216.8
		c12.4-15.7,38-40.2,54.7-50.4C190.8,40.1,252.5,26.2,306,39.1c-58.7-14.6-124.1-9.5-175.5,20.8C127.9,61.4,123.9,64,121.3,65"/>
</g>
</svg>
