<?xml version="1.0" encoding="utf-8"?>
<!-- Generator: Adobe Illustrator 25.1.0, SVG Export Plug-In . SVG Version: 6.00 Build 0)  -->
<svg version="1.1" id="Layer_1" xmlns="http://www.w3.org/2000/svg" xmlns:xlink="http://www.w3.org/1999/xlink" x="0px" y="0px"
	 viewBox="0 0 449.5 512" style="enable-background:new 0 0 449.5 512;" xml:space="preserve">
<style type="text/css">
	.st0{fill-rule:evenodd;clip-rule:evenodd;}
	.st1{fill-rule:evenodd;clip-rule:evenodd;fill:#44BCC3;}
	.st2{fill-rule:evenodd;clip-rule:evenodd;fill:#444994;}
	.st3{clip-path:url(#SVGID_10_);fill:url(#SVGID_11_);}
	.st4{clip-path:url(#SVGID_13_);fill:url(#SVGID_14_);}
	.st5{clip-path:url(#SVGID_16_);fill:url(#SVGID_17_);}
	.st6{clip-path:url(#SVGID_19_);fill:url(#SVGID_20_);}
	.st7{clip-path:url(#SVGID_22_);fill:url(#SVGID_23_);}
	.st8{clip-path:url(#SVGID_25_);fill:url(#SVGID_26_);}
	.st9{clip-path:url(#SVGID_28_);fill:url(#SVGID_29_);}
	.st10{fill-rule:evenodd;clip-rule:evenodd;fill:#006B49;}
	.st11{fill:#444994;}
	.st12{clip-path:url(#SVGID_30_);fill:url(#SVGID_31_);}
	.st13{clip-path:url(#SVGID_32_);fill:url(#SVGID_33_);}
	.st14{clip-path:url(#SVGID_34_);fill:url(#SVGID_35_);}
	.st15{clip-path:url(#SVGID_36_);fill:url(#SVGID_37_);}
	.st16{clip-path:url(#SVGID_38_);fill:url(#SVGID_39_);}
	.st17{clip-path:url(#SVGID_40_);fill:url(#SVGID_41_);}
	.st18{clip-path:url(#SVGID_42_);fill:url(#SVGID_43_);}
	.st19{clip-path:url(#SVGID_44_);fill:url(#SVGID_45_);}
	.st20{fill:#00A551;}
	.st21{clip-path:url(#SVGID_47_);fill:url(#SVGID_48_);}
	.st22{clip-path:url(#SVGID_50_);fill:url(#SVGID_51_);}
	.st23{clip-path:url(#SVGID_53_);fill:url(#SVGID_54_);}
	.st24{clip-path:url(#SVGID_56_);fill:url(#SVGID_57_);}
	.st25{fill:#231F20;}
	.st26{fill:#5A5A5D;}
	.st27{fill:#29A457;}
	.st28{fill:#21409A;}
	.st29{fill:#DA2128;}
	.st30{fill:#FCB134;}
	.st31{fill:#FFFFFF;}
	.st32{fill-rule:evenodd;clip-rule:evenodd;fill:#3C75BA;}
	.st33{fill:#F8C713;}
	.st34{fill-rule:evenodd;clip-rule:evenodd;fill:#F8C713;}
	.st35{fill-rule:evenodd;clip-rule:evenodd;stroke:#FFFFFF;stroke-width:0.4;stroke-miterlimit:22.9256;}
	.st36{fill:#44BCC3;}
</style>
<g>
	<g>
		<g>
			<path class="st1" d="M132.5,0.4C77.4-4.9,16.7,43,3.9,96.4c-1.1,4.6-1.8,8-2.5,12.2L0,120.2c-0.1,2.6,0,4,0,6.5
				c0.8,30.1,5.8,50.5,23.6,75.5c21.4,29.9,52.8,48.4,88.6,53.4l1.9,0.2c0.2,0,0.5,0,0.7,0.1l24.4,0.1c25.6-2,55.5-14.2,74.5-32.7
				c-18.3,15.8-42.1,22.9-64.6,25.7c-5.5,0.7-10.5,0.4-15.9,0c-16.7-1.1-28.2-2.4-46.3-11.4c-37.6-18.8-62.5-50.7-66.7-92.8
				c-0.8-8.3-3.4-23.4,0-31.2c-1.4-2.3,0.9-5.1,1.3-7.6c0.2-1.3,0.4-2.4,0.7-3.6c8.3-41.3,38.9-74.2,79.2-87.3
				c42.1-13.7,92.8-3.3,123.3,29.8C202.4,20.4,171,2.7,138.2,0.8C136.6,0.7,134.1,0.5,132.5,0.4"/>
			<path class="st2" d="M123.6,8.3C85.9,4.6,41.3,30.4,20.9,61.4C12.8,73.7,7.6,82.8,4.1,97.5c-1,4.3-1.6,7.4-2.3,11.3l-1.2,10.8
				c-0.1,2.4,0,3.7,0,6c0.8,28,5.3,46.9,21.9,70.1c19.9,27.8,49.1,44.9,82.3,49.6l1.8,0.2c0.1,0,0.4,0,0.6,0.1l22.6,0.1
				c23.8-1.9,51.6-13.2,69.2-30.4c-17,14.7-39.1,21.3-60,23.9c-5.1,0.6-9.7,0.4-14.8,0c-15.5-1-26.2-2.2-43-10.6
				c-34.9-17.5-57.2-47.3-61.2-86.5c-0.8-7.7-1.2-22,0.2-28.9c0.5-2.7,0.8-4.7,1.2-7c6.7-40,34.6-71.7,73.2-84.2
				c9.7-3.2,27.5-6.3,37.5-5.8c27.8,1.3,58,12.9,77,33.5c-20.8-22.8-50-39.3-80.4-41C127.4,8.6,125,8.6,123.6,8.3"/>
		</g>
		<g>
			<path class="st1" d="M317.1,0.4c55.1-5.3,115.7,42.6,128.6,96c1.1,4.6,1.8,8,2.5,12.2l1.3,11.6c0.1,2.6,0,4,0,6.5
				c-0.8,30.1-5.8,50.5-23.6,75.5c-21.4,29.9-52.8,48.4-88.6,53.4l-1.9,0.2c-0.2,0-0.5,0-0.7,0.1l-24.4,0.1
				c-25.6-2-55.5-14.2-74.5-32.7c18.3,15.8,42.1,22.9,64.6,25.7c5.5,0.7,10.5,0.4,15.9,0c16.7-1.1,28.2-2.4,46.3-11.4
				c37.6-18.8,62.5-50.7,66.7-92.8c0.8-8.3,3.4-23.4,0-31.2c1.4-2.3-0.9-5.1-1.3-7.6c-0.2-1.3-0.4-2.4-0.7-3.6
				c-8.3-41.3-38.9-74.2-79.2-87.3C306,1.5,255.3,11.8,224.8,45c22.3-24.6,53.8-42.3,86.5-44.1C312.9,0.7,315.5,0.5,317.1,0.4"/>
			<path class="st2" d="M326,8.3c37.7-3.7,82.2,22.1,102.6,53.1c8.1,12.3,13.3,21.5,16.8,36.1c1,4.3,1.6,7.4,2.3,11.3l1.2,10.8
				c0.1,2.4,0,3.7,0,6c-0.8,28-5.3,46.9-21.9,70.1c-19.9,27.8-49.1,44.9-82.3,49.6l-1.8,0.2c-0.1,0-0.4,0-0.6,0.1l-22.6,0.1
				c-23.8-1.9-51.6-13.2-69.2-30.4c17,14.7,39.1,21.3,60,23.9c5.1,0.6,9.7,0.4,14.8,0c15.5-1,26.2-2.2,43-10.6
				c34.9-17.5,57.2-47.3,61.2-86.5c0.8-7.7,1.2-22-0.2-28.9c-0.5-2.7-0.8-4.7-1.2-7c-6.7-40-34.6-71.7-73.2-84.2
				c-9.7-3.2-27.5-6.3-37.5-5.8c-27.8,1.3-58,12.9-77,33.5c20.8-22.8,50-39.3,80.4-41C322.1,8.6,324.6,8.6,326,8.3"/>
		</g>
	</g>
	<g>
		<g>
			<path class="st1" d="M132.5,511.6c-55.1,5.3-115.7-42.6-128.6-96c-1.1-4.6-1.8-8-2.5-12.2L0,391.8c-0.1-2.6,0-4,0-6.5
				c0.8-30.1,5.8-50.5,23.6-75.5c21.4-29.9,52.8-48.4,88.6-53.4l1.9-0.2c0.2,0,0.5,0,0.7-0.1l24.4-0.1c25.6,2,55.5,14.2,74.5,32.7
				c-18.3-15.8-42.1-22.9-64.6-25.7c-5.5-0.7-10.5-0.4-15.9,0c-16.7,1.1-28.2,2.4-46.3,11.4c-37.6,18.8-62.5,50.7-66.7,92.8
				c-0.8,8.3-3.4,23.4,0,31.2c-1.4,2.3,0.9,5.1,1.3,7.6c0.2,1.3,0.4,2.4,0.7,3.6c8.3,41.3,38.9,74.2,79.2,87.3
				c42.1,13.7,92.8,3.3,123.3-29.8c-22.3,24.6-53.8,42.3-86.5,44.1C136.6,511.3,134.1,511.5,132.5,511.6"/>
			<path class="st2" d="M123.6,503.7c-37.7,3.7-82.2-22.1-102.6-53.1c-8.1-12.3-13.3-21.5-16.8-36.1c-1-4.3-1.6-7.4-2.3-11.3
				l-1.2-10.8c-0.1-2.4,0-3.7,0-6c0.8-28,5.3-46.9,21.9-70.1c19.9-27.8,49.1-44.9,82.3-49.6l1.8-0.2c0.1,0,0.4,0,0.6-0.1l22.6-0.1
				c23.8,1.9,51.6,13.2,69.2,30.4c-17-14.7-39.1-21.3-60-23.9c-5.1-0.6-9.7-0.4-14.8,0c-15.5,1-26.2,2.2-43,10.6
				c-34.9,17.5-57.2,47.3-61.2,86.5c-0.8,7.7-1.2,22,0.2,28.9c0.5,2.7,0.8,4.7,1.2,7c6.7,40,34.6,71.7,73.2,84.2
				c9.7,3.2,27.5,6.3,37.5,5.8c27.8-1.3,58-12.9,77-33.5c-20.8,22.8-50,39.3-80.4,41C127.4,503.4,125,503.4,123.6,503.7"/>
		</g>
		<g>
			<path class="st1" d="M317.1,511.6c55.1,5.3,115.7-42.6,128.6-96c1.1-4.6,1.8-8,2.5-12.2l1.3-11.6c0.1-2.6,0-4,0-6.5
				c-0.8-30.1-5.8-50.5-23.6-75.5c-21.4-29.9-52.8-48.4-88.6-53.4l-1.9-0.2c-0.2,0-0.5,0-0.7-0.1l-24.4-0.1
				c-25.6,2-55.5,14.2-74.5,32.7c18.3-15.8,42.1-22.9,64.6-25.7c5.5-0.7,10.5-0.4,15.9,0c16.7,1.1,28.2,2.4,46.3,11.4
				c37.6,18.8,62.5,50.7,66.7,92.8c0.8,8.3,3.4,23.4,0,31.2c1.4,2.3-0.9,5.1-1.3,7.6c-0.2,1.3-0.4,2.4-0.7,3.6
				c-8.3,41.3-38.9,74.2-79.2,87.3c-42.1,13.7-92.8,3.3-123.3-29.8c22.3,24.6,53.8,42.3,86.5,44.1
				C312.9,511.3,315.5,511.5,317.1,511.6"/>
			<path class="st2" d="M326,503.7c37.7,3.7,82.2-22.1,102.6-53.1c8.1-12.3,13.3-21.5,16.8-36.1c1-4.3,1.6-7.4,2.3-11.3l1.2-10.8
				c0.1-2.4,0-3.7,0-6c-0.8-28-5.3-46.9-21.9-70.1c-19.9-27.8-49.1-44.9-82.3-49.6l-1.8-0.2c-0.1,0-0.4,0-0.6-0.1l-22.6-0.1
				c-23.8,1.9-51.6,13.2-69.2,30.4c17-14.7,39.1-21.3,60-23.9c5.1-0.6,9.7-0.4,14.8,0c15.5,1,26.2,2.2,43,10.6
				c34.9,17.5,57.2,47.3,61.2,86.5c0.8,7.7,1.2,22-0.2,28.9c-0.5,2.7-0.8,4.7-1.2,7c-6.7,40-34.6,71.7-73.2,84.2
				c-9.7,3.2-27.5,6.3-37.5,5.8c-27.8-1.3-58-12.9-77-33.5c20.8,22.8,50,39.3,80.4,41C322.1,503.4,324.6,503.4,326,503.7"/>
		</g>
	</g>
</g>
</svg>
