<?xml version="1.0" encoding="utf-8"?>
<!-- Generator: Adobe Illustrator 25.1.0, SVG Export Plug-In . SVG Version: 6.00 Build 0)  -->
<svg version="1.1" id="Layer_1" xmlns="http://www.w3.org/2000/svg" xmlns:xlink="http://www.w3.org/1999/xlink" x="0px" y="0px"
	 viewBox="0 0 512 344" style="enable-background:new 0 0 512 344;" xml:space="preserve">
<style type="text/css">
	.st0{fill-rule:evenodd;clip-rule:evenodd;}
	.st1{fill-rule:evenodd;clip-rule:evenodd;fill:#44BCC3;}
	.st2{fill-rule:evenodd;clip-rule:evenodd;fill:#444994;}
	.st3{clip-path:url(#SVGID_10_);fill:url(#SVGID_11_);}
	.st4{clip-path:url(#SVGID_13_);fill:url(#SVGID_14_);}
	.st5{clip-path:url(#SVGID_16_);fill:url(#SVGID_17_);}
	.st6{clip-path:url(#SVGID_19_);fill:url(#SVGID_20_);}
	.st7{clip-path:url(#SVGID_22_);fill:url(#SVGID_23_);}
	.st8{clip-path:url(#SVGID_25_);fill:url(#SVGID_26_);}
	.st9{clip-path:url(#SVGID_28_);fill:url(#SVGID_29_);}
	.st10{fill-rule:evenodd;clip-rule:evenodd;fill:#006B49;}
	.st11{fill:#444994;}
	.st12{clip-path:url(#SVGID_30_);fill:url(#SVGID_31_);}
	.st13{clip-path:url(#SVGID_32_);fill:url(#SVGID_33_);}
	.st14{clip-path:url(#SVGID_34_);fill:url(#SVGID_35_);}
	.st15{clip-path:url(#SVGID_36_);fill:url(#SVGID_37_);}
	.st16{clip-path:url(#SVGID_38_);fill:url(#SVGID_39_);}
	.st17{clip-path:url(#SVGID_40_);fill:url(#SVGID_41_);}
	.st18{clip-path:url(#SVGID_42_);fill:url(#SVGID_43_);}
	.st19{clip-path:url(#SVGID_44_);fill:url(#SVGID_45_);}
	.st20{fill:#00A551;}
	.st21{clip-path:url(#SVGID_47_);fill:url(#SVGID_48_);}
	.st22{clip-path:url(#SVGID_50_);fill:url(#SVGID_51_);}
	.st23{clip-path:url(#SVGID_53_);fill:url(#SVGID_54_);}
	.st24{clip-path:url(#SVGID_56_);fill:url(#SVGID_57_);}
	.st25{fill:#231F20;}
	.st26{fill:#5A5A5D;}
	.st27{fill:#29A457;}
	.st28{fill:#21409A;}
	.st29{fill:#DA2128;}
	.st30{fill:#FCB134;}
	.st31{fill:#FFFFFF;}
	.st32{fill-rule:evenodd;clip-rule:evenodd;fill:#3C75BA;}
	.st33{fill:#F8C713;}
	.st34{fill-rule:evenodd;clip-rule:evenodd;fill:#F8C713;}
	.st35{fill-rule:evenodd;clip-rule:evenodd;stroke:#FFFFFF;stroke-width:0.4;stroke-miterlimit:22.9256;}
	.st36{fill:#44BCC3;}
</style>
<g>
	<path class="st25" d="M467,208.5h19.5v-30.4h23.1v-17.9h-23.1v-13.6h24v-17.9H467V208.5z M422.9,208.5h20.3v-61.8h15.6v-17.9h-51.7
		v17.9h15.7V208.5z M378.5,208.5h20.3v-79.6h-20.3V208.5z"/>
	<g>
		<g>
			<g>
				
					<ellipse transform="matrix(1 -3.703478e-03 3.703478e-03 1 -0.6352 0.6373)" class="st31" cx="171.8" cy="171.8" rx="168.3" ry="168.2"/>
				<path class="st25" d="M171.8,342.1c-93.9,0-170.3-76.4-170.3-170.2S77.9,1.6,171.8,1.6C265.6,1.6,342,78,342,171.8
					S265.6,342.1,171.8,342.1z M171.8,5.6C80.1,5.6,5.5,80.2,5.5,171.8c0,91.7,74.6,166.2,166.3,166.2
					c91.7,0,166.3-74.6,166.3-166.2C338,80.2,263.4,5.6,171.8,5.6z"/>
			</g>
			<g>
				<g>
					<path class="st32" d="M154.4,58.2c-34.1,5.4-58.6,23.6-72.5,41.9c-16.6,21.8-28.9,53.1-23.4,89c8.7,57,62.5,106.8,130.4,96.8
						c57.8-8.6,106.4-62.7,96.2-130.6c-4.3-28.9-19.7-55.8-42-73C221,65.1,191.2,52.4,154.4,58.2"/>
					<path class="st0" d="M154.2,56.8c-34.5,5.4-59.4,23.9-73.5,42.4C63.9,121.3,51.5,153,57,189.3c8.8,57.8,63.3,108.2,132,98
						c58.6-8.7,107.8-63.5,97.4-132.3c-4.4-29.3-19.9-56.5-42.5-74C221.6,63.8,191.4,50.9,154.2,56.8 M139.1,63.7
						c14.9-6.4,49.2-6.4,64-0.2C195.3,70,146.1,71.2,139.1,63.7z M230.3,83c-1.7-1-12.9-10.9-15-14.9c6.2,2.3,14.3,6.4,19.2,10.6
						C233.4,81.1,234.2,80.5,230.3,83z M108.2,78.6c3.4-2.4,8.4-6.3,12.9-7.3c-2.3,2.8-5.7,9.5-9.4,11.5
						C110.4,81.6,109.5,80.8,108.2,78.6z M118.6,86.9c2.1-5.3,10.9-14.7,14.5-18.2l9.2,3.3l-7.8,20.7
						C128.5,92.2,122.7,89.6,118.6,86.9z M209,69.1c3.5,4.6,12.2,10.3,15.1,18.5c-6.1,2-8.9,4.3-16.8,5.4c-0.7-9-4.7-14-7.1-20.7
						L209,69.1z M119.9,150.6l3.5-6.3c-17-21.1-15.8-28.8-8.8-50.9c22.8,8.6,15.8,2.3,23.3,22.2l4.2-4.6l-1-8.4
						c6.8,0.8,16.7,2.1,23.5,3.3c4.6,0.8,3.1,0.6,3.8,3.2c1.4,5.1-1.3,3.2,2,5.1c4.9,2.8,3.3-4.5,4.5-7.8l26.4-3.7
						c1.5,3.6-0.5,5.5-0.9,9l4.1,3.3c3.1-4.2,4.4-9.1,5.3-15c8.9-2,15.1-6.2,17.6-5.4c6,13.3-7.8,17.5,4.1,20.6
						c4.2-6.9,3.2-17.4,2.8-25.9c2.8-1.9,4.6-3.7,6.9-5.7c7.8,4.4,12.5,10,17.2,16.5c2.8,3.9,4.5,5.3,7,9.2
						c30.1,45.9,24,103.4-13.6,142.6c-2.8,2.9-6.1,4.5-7.9,8.1c-3.4-1.5-3.2-1.7-5.6-4c-1.7-1.7-0.4-0.6-2.1-2.1
						c-0.9-0.8-1.2-0.8-2.3-1.8c1.1-5.4,4.4-10.7,5.3-17.2c2-15-1.8-33.1-12.1-44.1c-3.3-3.5-2-2.7-6.7-4.8l-0.9,9.2
						c8.5,3.8,10.2,11.3,12,23.5c2.4,16.2,0.1,16.4-2.9,29.8l-17.9-6.7c-1.3-3.9-2.2-9.3-4.4-13l-1.6-2c-1.9,1.1-2,1-4,2.3l1.6,10.2
						l-27.2-3.9c-0.8-4.1,0.4-5-1.6-7.8l-3.2,0c-1.9,2.7-1.1,4.1-1.4,8l-27.4,3.4c0.2-8.4,4.7-8-2.4-12.3c-4.1,3.5-4,10.6-6.3,14.9
						l-17.3,6.3c-1.3-9.5-0.5-11.1,1.8-19.4l-6.1-2.2c-2.9,8.5-3.3,16.4-2.2,25.8c-2.2,2.7-4.4,4.7-7.6,6.8
						c-7.6-3-12.1-10.4-16.7-15.9c-5.2-6.1-8.7-11.5-12.9-19.4c-17.5-32.7-15.7-71,0.4-104.2c5.9-12,18.7-28.6,29.3-35.7l7,5.1
						c-2.8,13.8-7.9,16.5-3.8,35.1C106.1,132.3,113.6,147.2,119.9,150.6z M144.6,83.4c1.2-3.8,2.6-6.9,3.4-10.2l21,2.3l-0.4,23.2
						c-8.9,0.4-17.8-0.9-25.8-3.2L144.6,83.4z M194.7,73.5l6.4,21.4c-5.9,2.2-20.4,5.8-27.2,3.5l0-22.5L194.7,73.5z M142.1,246.8
						c9.5-2.5,17-3.8,27.3-4.3l0,23.5l-20.5,2.6C145.5,262.3,142.6,254.3,142.1,246.8z M193.7,268.9l-19.1-2.6l-0.8-23.4
						c8.3,0.4,21.3,0.2,27.3,4.8C200.2,254.6,197.4,264.6,193.7,268.9z M118.9,255.3c4.2-3.1,9.7-5.9,16.2-6.1
						c2.3,9.2,4.8,12.7,7.3,20.1c-3.6,2.2-5,3-9.6,3.7c-2.2-3-4.5-4.7-7-8L118.9,255.3z M208.8,273.1l-8.2-3.5
						c3.6-8.4,5.1-11.4,7.5-20.5c5.7,0.6,11.7,3,16.1,6.1C222.2,260.8,213.1,269.6,208.8,273.1z M107.5,263.9l5.2-4.9
						c4.7,6.2,8.2,11,12.7,15.3L107.5,263.9z M216.8,275.3l7.1-6.9c1.9-2.3,4.3-6.4,6.4-8.9c3.2,1.5,3.4,2.2,5.5,5.6
						C232,268,221.7,274.5,216.8,275.3z M138.3,278.5c16.8-6.1,41-9.5,59.5-2.7c3,1.1,4.9,1.8,6.4,4.2c-14.4,6.9-41.9,5.8-58.8,1.9
						C137.4,280.1,139.5,279.8,138.3,278.5z"/>
				</g>
				<g>
					<g>
						<g>
							<polygon class="st33" points="108,152.4 108,169.4 100.2,169.4 100.2,152.4 95.7,152.4 95.7,194.5 100.2,194.5 100.2,175.8 
								108,175.8 108,194.5 112.5,194.5 112.5,152.4 							"/>
							<path class="st34" d="M90.7,163.2l0,3.7H79.2v22.5h11.4v3.9l-16.4-0.1l-0.5-30C73.8,163.3,90.1,163.2,90.7,163.2z"/>
						</g>
						<rect x="73.1" y="153" class="st33" width="17.5" height="5.2"/>
					</g>
					<g>
						<polygon class="st33" points="234.8,188.1 234.8,196.2 269.5,196.2 269.9,190.7 243,190.7 243,188 						"/>
						<polygon class="st33" points="253.1,174.4 253.1,180.6 263.4,180.6 263.4,187.2 269.9,187.2 270,154.5 264.1,154.5 
							263.8,174.1 253.1,174.1 						"/>
						<polygon class="st33" points="235.7,184 243.2,184 249.8,173 257.8,173 258.2,167.2 252.5,166.6 256.3,158.4 256.1,153.9 
							233.5,153.6 233.3,158.8 247.6,159 243.8,166.6 233.7,166.9 233.5,172.7 241.1,173.2 						"/>
					</g>
					<g>
						<path class="st34" d="M123.4,144.3l-3.5,6.3c1.1,9.6,6,14,6.2,27.2c0.1,6.4,0.5,8.7,3.6,12.3c3.1,3.7,6.2,5.1,11.2,3.7
							c1.9-5.7,1.2-23.6,0.7-31c-1.3-20-12.3-8-17.6-12c7-5.2,7.9-1.1,19.3-7.5c11.1-6.3,11.7,1.4,21.9-5c10.3-6.4,11.9,2.6,34,4
							c6.5,0.4,6.1,2.9,10.3,2.6c-0.6-1.7-5.6-9.2-7.6-10.9c-5.5-4.6-9.6-0.4-16.5-1.6c-6.1-1-7.3-5.6-14.2-5.9
							c-8.4-0.3-9,4.1-12.9,7.7c-7.9,0.1-10.4-4.4-17.8,3C135.1,142.6,137.3,138.3,123.4,144.3"/>
						<path class="st34" d="M188.3,158.6l0.1-8.4c-3.6-10.6-15.3-12.5-24.7-5.8c-0.5,9.3,2.6,24.2,2.2,33.4
							c-0.2,4.6-2,10.7,0.1,14.7c2,3.7,13.2,7.7,15.9-0.7c0.5-1.4,0.6-3.1,0.8-4.5L188.3,158.6z"/>
						<path class="st34" d="M190.5,153c-0.3,2.4,0.1,5-1.7,5.8c1.6,13.9-4,24.9-3.6,34c0.3,7.8,13.3,13.5,18.3-3.1
							c5.2-17.1,15.7-34.5,3.2-41.2c-4.2-2.2-9-4.6-14-3.9C191.5,147,190.7,149.6,190.5,153"/>
						<path class="st34" d="M219.3,195.2l0.9-9.2c-0.3-6.6-3.5-10.5-7-13.4c-2,9.2-7,28.1-13,31c-9.1,4.5-31.9-14-26.3,8.9
							c7.9,1.8,9.3,0,15.7,4.7c13,9.6,19-3.8,23.2-9.7C216,203.4,217.7,201,219.3,195.2"/>
						<path class="st34" d="M159.7,195.3c1.8-4.7,5.4-45.2-1.2-50.3c-3.4-2.7-10.3-1.6-12.9,0.8c-6.2,5.4,1.8,6.3,0.3,30
							C145,188.8,144.4,198.3,159.7,195.3"/>
						<path class="st34" d="M146.7,197.7c-1.4,4.9,1.4,5.5,6,5.5c5.3,0,7.1,0.2,8.7-3.9C159.4,198.5,150.6,198.5,146.7,197.7"/>
						<path class="st34" d="M133.1,199.3c0.9,1.4,0.3,3.1,4.4,2.7c4-0.4,2.5-0.9,3.6-2.7C138,197.9,135.9,197.9,133.1,199.3"/>
					</g>
				</g>
			</g>
			<path class="st25" d="M212.5,293.6l8.2,28.1l-5.9,1.7L201,305.9l5.9,19.6l-5.4,1.5l-8.2-28.1l5.9-1.6l13.8,17.4l-5.9-19.6
				L212.5,293.6z M240.9,295.7c1.4,2.8,2.5,5,3.1,6.8c0.6,1.8,0.8,3.3,0.6,4.4c-0.2,1.6-0.7,2.9-1.6,4c-0.9,1.1-2.3,2.1-4.1,3.1
				c-1.9,0.9-3.5,1.5-4.9,1.5c-1.4,0.1-2.9-0.3-4.3-1c-1.1-0.6-2.1-1.6-3.3-3.1c-1.1-1.5-2.4-3.6-3.9-6.4c-1.4-2.7-2.5-5-3-6.8
				c-0.6-1.8-0.8-3.3-0.7-4.4c0.2-1.6,0.8-2.9,1.7-4c0.9-1.1,2.3-2.1,4.1-3.1c1.9-0.9,3.5-1.5,4.9-1.5c1.4-0.1,2.8,0.3,4.3,1
				c1,0.5,2.1,1.5,3.3,3C238.1,290.9,239.4,293,240.9,295.7z M235.5,298.5c-2.3-4.3-3.9-6.8-5.1-7.7c-1.1-0.8-2.4-0.9-3.9-0.1
				c-1.5,0.7-2.2,1.8-2.1,3.1c0,1.4,1.2,4.2,3.5,8.5c2.3,4.3,4,6.9,5.1,7.7c1.1,0.8,2.4,0.9,3.9,0.1c1.5-0.7,2.2-1.8,2.1-3.2
				C238.9,305.6,237.7,302.8,235.5,298.5z M239.3,276.8l17.4,23.8l-4.9,3.4l-17.4-23.8L239.3,276.8z M252.4,266.2l17.3,17.6l5-4.7
				l3.4,3.5L263.8,296l-3.4-3.5l5-4.7l-17.3-17.6L252.4,266.2z M273.1,243.6l19.1,23.6l-4.9,6.2l-28-12.3l4-5l6.9,3.3l4.2-5.3
				l-5-5.7L273.1,243.6z M277.3,257.5l-3.1,3.9l11.4,5.6L277.3,257.5z M284.2,223.6l26.6,13.2l-4.8,9.4c-1.5,2.8-3.1,4.6-4.8,5.3
				c-1.7,0.7-3.8,0.4-6.3-0.8c-1.7-0.9-2.9-1.9-3.6-3c-0.7-1.2-0.7-2.4-0.2-3.8c-1.9,2.2-4.6,2.5-8,0.9c-0.2-0.1-0.3-0.1-0.3-0.2
				l-3.6-1.6c-1-0.4-1.9-0.7-2.6-0.8c-0.7-0.1-1.4,0-2.1,0.2l3.2-6.2c0.5,0.1,1.1,0.2,1.7,0.5c0.6,0.2,1.5,0.6,2.6,1.1l2.8,1.3
				l0.7,0.4c1.5,0.8,2.8,0.9,3.7,0.5c0.9-0.4,2-1.7,3.1-3.8l0.9-1.8l-11.7-5.8L284.2,223.6z M296.9,236.2l-1.6,3
				c-0.8,1.5-1,2.7-0.8,3.6c0.3,0.9,1.1,1.7,2.6,2.4c1.3,0.7,2.4,0.8,3.3,0.4c0.9-0.4,1.7-1.4,2.6-3.1l1.3-2.6L296.9,236.2z
				 M293,201.6l28.7,7.9l-4.5,15.5l-4.8-1.3l2.9-9.9l-6.6-1.8l-2.7,9.3l-4.5-1.3l2.7-9.3l-7.9-2.2l-2.9,10.2l-4.8-1.3L293,201.6z
				 M296.2,177.2l29.7,2.2l-0.7,9.4c-0.1,1.9-0.4,3.4-0.8,4.5c-0.4,1.1-1,2-1.7,2.7c-1.1,1-2.4,1.7-4,2.1c-1.6,0.3-4,0.4-7.3,0.1
				c-4.2-0.3-7.2-0.7-8.9-1.1c-1.7-0.4-3.2-1.1-4.3-1.9c-1.2-0.8-1.9-1.9-2.3-3.2c-0.4-1.3-0.5-3.6-0.2-6.7L296.2,177.2z
				 M300.1,183.3l-0.2,2.6c-0.1,1.3-0.1,2.2,0.1,2.8c0.1,0.5,0.4,1,0.8,1.3c0.7,0.6,1.8,1.1,3.1,1.4c1.3,0.3,3.5,0.6,6.4,0.8
				c2.9,0.2,5,0.2,6.3,0.1c1.3-0.2,2.4-0.6,3.1-1.2c0.4-0.3,0.6-0.7,0.8-1.3c0.2-0.5,0.3-1.4,0.4-2.5l0.2-2.5L300.1,183.3z
				 M296.8,154.3l29.7-2.2l1.2,16.1l-4.9,0.4l-0.8-10.3l-6.9,0.5l0.7,9.6l-4.7,0.3l-0.7-9.6l-8.2,0.6l0.8,10.5l-5,0.4L296.8,154.3z
				 M292.2,134l28.7-7.9l4.5,15.8l-4.7,1.3l-2.9-10.2l-6.8,1.9l2.8,9.6l-4.6,1.3l-2.8-9.6l-12.6,3.5L292.2,134z M289.8,93.7
				c2.7-1.5,5-2.6,6.8-3.3c1.8-0.6,3.3-0.9,4.5-0.8c1.6,0.1,3,0.6,4.2,1.4c1.1,0.8,2.2,2.1,3.3,3.9c1,1.8,1.6,3.4,1.8,4.8
				c0.1,1.4-0.1,2.8-0.9,4.3c-0.5,1.1-1.5,2.2-3,3.4c-1.5,1.2-3.6,2.5-6.3,4.1c-2.7,1.5-5,2.6-6.8,3.3c-1.8,0.6-3.3,0.9-4.5,0.8
				c-1.6-0.1-3-0.6-4.2-1.4c-1.1-0.8-2.2-2.1-3.3-3.9c-1-1.8-1.6-3.4-1.8-4.8c-0.1-1.4,0.2-2.8,0.9-4.2c0.5-1,1.5-2.2,3-3.4
				C285,96.6,287.1,95.2,289.8,93.7z M292.9,98.9c-4.3,2.4-6.8,4.1-7.6,5.3c-0.8,1.1-0.8,2.4,0,3.8c0.8,1.4,1.9,2,3.3,2
				c1.4-0.1,4.2-1.3,8.5-3.7c4.3-2.4,6.9-4.2,7.7-5.3c0.8-1.1,0.8-2.4,0-3.8c-0.8-1.4-1.9-2.1-3.3-2C300,95.2,297.2,96.5,292.9,98.9
				z M261.5,82.1l22.6-19l6.3,7.1c1.3,1.5,2.2,2.7,2.7,3.8c0.5,1.1,0.8,2.1,0.7,3.1c0,1.5-0.5,2.9-1.4,4.2c-0.9,1.3-2.6,3.1-5,5.2
				c-3.2,2.7-5.6,4.5-7.1,5.4c-1.5,0.9-3,1.4-4.4,1.6c-1.4,0.2-2.7,0-3.9-0.6c-1.2-0.7-2.9-2.2-5-4.6L261.5,82.1z M268.7,83.7l1.7,2
				c0.9,1,1.6,1.6,2.1,1.9c0.5,0.3,1,0.4,1.5,0.4c0.9-0.1,2-0.5,3.2-1.1c1.2-0.7,2.9-2,5.1-3.9c2.2-1.8,3.7-3.3,4.5-4.3
				c0.8-1,1.3-2,1.3-3c0-0.5-0.1-1-0.3-1.4c-0.3-0.5-0.8-1.2-1.5-2l-1.7-1.9L268.7,83.7z M255.2,67.8l3.1-3.4l7.6,6.5l-3.1,3.4
				L255.2,67.8z M229.4,60.6L245.6,36l5.2,3.3l-4.3,21.6l11.2-17.3l4.7,3l-16.2,24.5l-5.1-3.2l4.3-21.7l-11.2,17.3L229.4,60.6z
				 M211.3,36.6c1.2-2.9,2.2-5.1,3.2-6.7c1-1.6,2-2.7,3-3.3c1.4-0.9,2.8-1.4,4.2-1.4c1.4-0.1,3.1,0.3,5.1,1.1c2,0.8,3.4,1.6,4.4,2.6
				c1,1,1.7,2.3,2,3.9c0.3,1.1,0.2,2.6-0.2,4.5c-0.4,1.8-1.2,4.2-2.4,7c-1.2,2.9-2.2,5.1-3.2,6.7c-1,1.6-2,2.7-3,3.4
				c-1.4,0.9-2.8,1.4-4.2,1.4c-1.4,0.1-3.1-0.3-5.1-1.1c-2-0.8-3.4-1.6-4.4-2.6c-1-1-1.7-2.3-2-3.8c-0.3-1.1-0.2-2.6,0.2-4.4
				C209.3,41.8,210.1,39.4,211.3,36.6z M216.9,38.8c-1.8,4.5-2.7,7.4-2.6,8.8c0.1,1.4,0.9,2.4,2.5,3c1.5,0.6,2.8,0.4,3.8-0.5
				c1-0.9,2.4-3.6,4.3-8.1c1.8-4.5,2.7-7.5,2.6-8.8c-0.1-1.4-0.9-2.4-2.4-3c-1.5-0.6-2.8-0.4-3.9,0.5
				C220.2,31.6,218.8,34.3,216.9,38.8z M175.8,45.6l-2.4-29.8l6.1,0.8l1,22.5l7-21.4l4.9,0.6l1.7,23l6.3-22l6.1,0.8L197,48.3l-7-0.9
				l-1.3-18.8l-5.8,17.9L175.8,45.6z M149.1,46.9l-2.3-29.1l5.8-0.4l1,12.2l6.3-12.7l6.6-0.5l-7.1,12.7l9.9,16.4l-6.5,0.5l-6.7-11.6
				l-1.9,3.4l0.7,8.8L149.1,46.9z M128.7,52.5l-8.2-28.1l15.8-4.4l1.4,4.7l-10.1,2.8l1.9,6.5l9.4-2.6l1.3,4.4l-9.4,2.6l2.3,7.7
				l10.4-2.9l1.4,4.7L128.7,52.5z M105.7,64.4l-7.3-29.2l7.1-3.6l20.2,22.7l-5.7,2.9l-4.8-5.8l-6.1,3.1l2.1,7.2L105.7,64.4z
				 M107.8,50.1l4.5-2.3l-8-9.7L107.8,50.1z M96.9,71.3L82.4,51.4l-5.6,3.9l-2.9-3.9l16-11.3l2.9,3.9L87.2,48l14.5,19.8L96.9,71.3z
				 M71.1,95.2l-22.6-19l3.9-4.4l18.8,15.8l7-8l3.8,3.2L71.1,95.2z M58.1,118.3L35.8,97.6l4-6.8l29.5,8.3l-3.2,5.5l-7.3-2.3
				l-3.4,5.8l5.7,5L58.1,118.3z M51.9,105.1l2.5-4.3l-12.1-3.9L51.9,105.1z M49.7,139l-27.8-10.6l2.2-5.6l22.5-0.2l-19.5-7.3
				l2.1-5.1l27.8,10.6l-2.2,5.6l-22.5,0.2l19.5,7.3L49.7,139z M32.6,164.1c-3.1-0.4-5.6-0.9-7.5-1.4c-1.8-0.5-3.2-1.2-4-2
				c-1.2-1.1-2-2.3-2.5-3.6c-0.4-1.3-0.5-3-0.2-5.1c0.3-2.1,0.8-3.7,1.5-4.8c0.7-1.2,1.8-2.2,3.3-2.9c1.1-0.5,2.5-0.8,4.5-0.9
				c1.9-0.1,4.4,0.1,7.5,0.5c3.1,0.4,5.6,0.8,7.4,1.4c1.8,0.5,3.2,1.2,4.1,2c1.2,1.1,2,2.3,2.5,3.6c0.4,1.3,0.5,3,0.2,5.1
				c-0.3,2.1-0.8,3.7-1.5,4.9c-0.7,1.2-1.8,2.1-3.3,2.9c-1,0.5-2.5,0.9-4.4,0.9C38.2,164.6,35.7,164.5,32.6,164.1z M33.3,158.1
				c4.9,0.6,8,0.7,9.3,0.2c1.3-0.4,2.1-1.5,2.3-3.1c0.2-1.6-0.3-2.8-1.4-3.5c-1.2-0.7-4.2-1.4-9.1-2c-4.9-0.6-8-0.7-9.4-0.3
				c-1.3,0.4-2.1,1.5-2.3,3.1c-0.2,1.6,0.3,2.8,1.5,3.5C25.4,156.9,28.4,157.5,33.3,158.1z M45.6,175l-29.8-0.7l0.1-5.9l29.8,0.7
				L45.6,175z M47.5,191.5l-24.7,3.1l0.9,6.7l-4.9,0.6l-2.5-19.2l4.9-0.6l0.9,6.7l24.7-3.1L47.5,191.5z M53.5,219.7l-30.7,1.1
				l-2.2-7.6l26.7-14.8l1.7,6.1l-6.8,3.5l1.9,6.5l7.6-0.5L53.5,219.7z M39.7,214.8l-1.4-4.8L27,215.7L39.7,214.8z M63.7,239.8
				L37.1,253l-2.8-5.4l14.8-16.6l-18.5,9.4l-2.6-4.9l26.6-13.2l2.8,5.3l-14.8,16.6l18.5-9.4L63.7,239.8z M78.7,259.9l-23.5,18
				l-6.6-8.3c-2-2.5-3-4.7-2.9-6.5c0.1-1.8,1.2-3.6,3.4-5.3c1.5-1.2,3-1.8,4.3-1.9c1.4-0.1,2.6,0.4,3.6,1.4
				c-1.2-2.6-0.4-5.1,2.5-7.5c0.1-0.1,0.2-0.2,0.3-0.2l3-2.5c0.9-0.7,1.5-1.4,1.9-2c0.4-0.6,0.6-1.3,0.7-2l4.4,5.5
				c-0.3,0.4-0.7,0.9-1.2,1.4c-0.5,0.5-1.2,1.1-2.2,1.9l-2.4,1.9l-0.6,0.5c-1.4,1-2.1,2.1-2.1,3.1c0,1,0.7,2.4,2.2,4.3l1.3,1.6
				l10.3-7.9L78.7,259.9z M61.6,265.8l-2.1-2.7c-1.1-1.3-2.1-2.1-3-2.2c-0.9-0.1-2,0.3-3.4,1.3c-1.2,0.9-1.8,1.8-1.8,2.7
				c0,0.9,0.6,2.1,1.8,3.6l1.8,2.3L61.6,265.8z M98.1,275.8l-19.6,22l-12.4-10.6l3.3-3.7l7.9,6.8l4.5-5.1l-7.4-6.3l3.1-3.5l7.4,6.3
				l5.4-6.1l-8.1-7l3.3-3.7L98.1,275.8z M112.7,284.9l-13.5,20.5l5.8,3.7l-2.7,4l-16.5-10.5l2.7-4l5.8,3.7l13.5-20.5L112.7,284.9z
				 M139.5,297.5l-11,27.2l-5.7-2.2l-0.1-22l-7.5,19.1l-5.2-2l11-27.2l5.7,2.2l0.1,22.1l7.6-19.1L139.5,297.5z M147.2,299.7
				l-8.2,28.1l-5.7-1.6l8.2-28.1L147.2,299.7z"/>
		</g>
		<path class="st25" d="M171.8,305.3c-5,0-9,4.1-9,9.1c0,5,4,9.1,9,9.1c5,0,9-4.1,9-9.1C180.8,309.3,176.7,305.3,171.8,305.3z"/>
	</g>
</g>
</svg>
