<?xml version="1.0" encoding="utf-8"?>
<!-- Generator: Adobe Illustrator 25.1.0, SVG Export Plug-In . SVG Version: 6.00 Build 0)  -->
<svg version="1.1" id="Layer_1" xmlns="http://www.w3.org/2000/svg" xmlns:xlink="http://www.w3.org/1999/xlink" x="0px" y="0px"
	 viewBox="0 0 512 512" style="enable-background:new 0 0 512 512;" xml:space="preserve">
<style type="text/css">
	.st0{fill-rule:evenodd;clip-rule:evenodd;}
	.st1{fill-rule:evenodd;clip-rule:evenodd;fill:#44BCC3;}
	.st2{fill-rule:evenodd;clip-rule:evenodd;fill:#444994;}
	.st3{clip-path:url(#SVGID_10_);fill:url(#SVGID_11_);}
	.st4{clip-path:url(#SVGID_13_);fill:url(#SVGID_14_);}
	.st5{clip-path:url(#SVGID_16_);fill:url(#SVGID_17_);}
	.st6{clip-path:url(#SVGID_19_);fill:url(#SVGID_20_);}
	.st7{clip-path:url(#SVGID_22_);fill:url(#SVGID_23_);}
	.st8{clip-path:url(#SVGID_25_);fill:url(#SVGID_26_);}
	.st9{clip-path:url(#SVGID_28_);fill:url(#SVGID_29_);}
	.st10{fill-rule:evenodd;clip-rule:evenodd;fill:#006B49;}
	.st11{fill:#444994;}
	.st12{clip-path:url(#SVGID_30_);fill:url(#SVGID_31_);}
	.st13{clip-path:url(#SVGID_32_);fill:url(#SVGID_33_);}
	.st14{clip-path:url(#SVGID_34_);fill:url(#SVGID_35_);}
	.st15{clip-path:url(#SVGID_36_);fill:url(#SVGID_37_);}
	.st16{clip-path:url(#SVGID_38_);fill:url(#SVGID_39_);}
	.st17{clip-path:url(#SVGID_40_);fill:url(#SVGID_41_);}
	.st18{clip-path:url(#SVGID_42_);fill:url(#SVGID_43_);}
	.st19{clip-path:url(#SVGID_44_);fill:url(#SVGID_45_);}
	.st20{fill:#00A551;}
	.st21{clip-path:url(#SVGID_47_);fill:url(#SVGID_48_);}
	.st22{clip-path:url(#SVGID_50_);fill:url(#SVGID_51_);}
	.st23{clip-path:url(#SVGID_53_);fill:url(#SVGID_54_);}
	.st24{clip-path:url(#SVGID_56_);fill:url(#SVGID_57_);}
	.st25{fill:#231F20;}
	.st26{fill:#5A5A5D;}
	.st27{fill:#29A457;}
	.st28{fill:#21409A;}
	.st29{fill:#DA2128;}
	.st30{fill:#FCB134;}
	.st31{fill:#FFFFFF;}
	.st32{fill-rule:evenodd;clip-rule:evenodd;fill:#3C75BA;}
	.st33{fill:#F8C713;}
	.st34{fill-rule:evenodd;clip-rule:evenodd;fill:#F8C713;}
	.st35{fill-rule:evenodd;clip-rule:evenodd;stroke:#FFFFFF;stroke-width:0.4;stroke-miterlimit:22.9256;}
	.st36{fill:#44BCC3;}
</style>
<path class="st35" d="M1.5,342.9c15.6,4.7,71.9-11.7,89.2-5.8c34.8,11.9,8.9,8.7,43.2,2.8c16-2.8,21.1,4.8,45.9-2
	c43.9-12.2,25-15,89.6-16.2c28.1-0.5,72.5,2,83.4,34.9c-13.4,11.1-10.2-3.3-26.6-17.2c-20.1,2.8-5.8,8.3-31.1,4.5
	c-28.1-4.2-36.3,9.3-15.7,17c2.8,1.1,30.2,3.4,54.2,18.3c27.3,16.9,37.7,35.5,69.1,40.7c31.2,5.2,42.8-22.9,34.3-47
	c-5-14.1-13.9-21-20.4-33c-5.5-10.1-7.2-23.5-9.1-36.1c13.1-6.5-1.5,0.5,10.3-1.9l30.9-14.3c78.8-51.5,76.2-59.3,26.6-97
	c-18.1-13.7-39.3-22.6-57.9-33.9c-30.4-18.5-13.2-30.7-31.2-54.9c-16.8-22.6-41.9-5.1-58.4,15.7c1,19,5.7,25.8,10.8,41.1
	c-62.9,59.4-44.3,25.5-80.1,49.5c-49.9,33.6-87.5,20.2-50.2,50.3c23.6-6.9,4-12.8,60.7-27c18.2-4.6,46.8-27.5,61.7-24.8
	c13.7,2.5,17.8,21.1-2.3,29.6l-8.3,2.4c-29.4,9.5-33.5,16.1-79.1,26.5c-12.4,2.8-19.4,2.7-30.7,5.7c-11.6,3.1-20.7,9.1-30.6,11.9
	l-63.8,15.8c-21.5,2.8-13.4,4.5-30.9,11.8c-18.4,7.6-46.5,0.1-61.3,4.8C12.7,318.6,0.8,333,1.5,342.9z M435.7,275.4
	c-3.9-7.1-12,3.9,10.1-30.3c11.7-18.1,10-24.5,28.6-13.8C472.2,240.1,451.8,272,435.7,275.4z"/>
</svg>
