<?xml version="1.0" encoding="utf-8"?>
<!-- Generator: Adobe Illustrator 25.1.0, SVG Export Plug-In . SVG Version: 6.00 Build 0)  -->
<svg version="1.1" id="Layer_1" xmlns="http://www.w3.org/2000/svg" xmlns:xlink="http://www.w3.org/1999/xlink" x="0px" y="0px"
	 viewBox="0 0 512 268" style="enable-background:new 0 0 512 268;" xml:space="preserve">
<style type="text/css">
	.st0{fill-rule:evenodd;clip-rule:evenodd;}
	.st1{fill-rule:evenodd;clip-rule:evenodd;fill:#44BCC3;}
	.st2{fill-rule:evenodd;clip-rule:evenodd;fill:#444994;}
	.st3{clip-path:url(#SVGID_10_);fill:url(#SVGID_11_);}
	.st4{clip-path:url(#SVGID_13_);fill:url(#SVGID_14_);}
	.st5{clip-path:url(#SVGID_16_);fill:url(#SVGID_17_);}
	.st6{clip-path:url(#SVGID_19_);fill:url(#SVGID_20_);}
	.st7{clip-path:url(#SVGID_22_);fill:url(#SVGID_23_);}
	.st8{clip-path:url(#SVGID_25_);fill:url(#SVGID_26_);}
	.st9{clip-path:url(#SVGID_28_);fill:url(#SVGID_29_);}
	.st10{fill-rule:evenodd;clip-rule:evenodd;fill:#006B49;}
	.st11{fill:#444994;}
	.st12{clip-path:url(#SVGID_30_);fill:url(#SVGID_31_);}
	.st13{clip-path:url(#SVGID_32_);fill:url(#SVGID_33_);}
	.st14{clip-path:url(#SVGID_34_);fill:url(#SVGID_35_);}
	.st15{clip-path:url(#SVGID_36_);fill:url(#SVGID_37_);}
	.st16{clip-path:url(#SVGID_38_);fill:url(#SVGID_39_);}
	.st17{clip-path:url(#SVGID_40_);fill:url(#SVGID_41_);}
	.st18{clip-path:url(#SVGID_42_);fill:url(#SVGID_43_);}
	.st19{clip-path:url(#SVGID_44_);fill:url(#SVGID_45_);}
	.st20{fill:#00A551;}
	.st21{clip-path:url(#SVGID_47_);fill:url(#SVGID_48_);}
	.st22{clip-path:url(#SVGID_50_);fill:url(#SVGID_51_);}
	.st23{clip-path:url(#SVGID_53_);fill:url(#SVGID_54_);}
	.st24{clip-path:url(#SVGID_56_);fill:url(#SVGID_57_);}
	.st25{fill:#231F20;}
	.st26{fill:#5A5A5D;}
	.st27{fill:#29A457;}
	.st28{fill:#21409A;}
	.st29{fill:#DA2128;}
	.st30{fill:#FCB134;}
	.st31{fill:#FFFFFF;}
	.st32{fill-rule:evenodd;clip-rule:evenodd;fill:#3C75BA;}
	.st33{fill:#F8C713;}
	.st34{fill-rule:evenodd;clip-rule:evenodd;fill:#F8C713;}
	.st35{fill-rule:evenodd;clip-rule:evenodd;stroke:#FFFFFF;stroke-width:0.4;stroke-miterlimit:22.9256;}
	.st36{fill:#44BCC3;}
</style>
<g>
	<path class="st0" d="M173.6,46.7c2.2-1.5,1.2-0.1,1.7-2.9c1.1-6.5-2.3-2.6-1.1-10.6c0.4-2.8-1-4.7-4-3.6c-1,0.4-3.8,3.3-5.4,4.4
		c-3.6,2.4-1.5,2.5-4.6,5.5c-5.7,5.4-18.4,13.4-23.7,24.6c-1,2-1.7,3.7-3.6,5.4c-10.3,8.4-1.9,4.3-8.8,10c-2.8,2.3-6.3,8.8-7.7,10.5
		c-1.9,2.4-3,2.1-5.4,3.9c0.7-2,6.3-7.5,8-9.8c-0.6-2.9-1.5-3.4-2.9-5.8c1.6-1.8,3.2-3.2,2-6.2c-3-8.1-15.2-6.1-10.3,4.4
		c-2,1.4-2.3,2.9-4.4,4.7c-1.2,1.1-1.8,1.1-3.2,2.3L93,90.3l-23.7,7.3c-6.9,1.4-6.9,4-11.1,7.5c-0.4-2.4-0.3-2.4,0.4-4.6
		c-7.7-5.7-5.3-5.3-8-10.9c-15-2.4-25.1,9.8-19.1,19.4c1.2,2,2.9,3.5,4.3,4.7c4.4,3.7,1,2.6,4,5.3c6.5,5.9,0.2-0.9,4.6,7.2
		c3.7,6.9-1.2,14.4,5.1,18.5c7.1,4.6,6.5,1.9,10.1,4c2.9,1.7,0.9,1.7,4.9,2.3c3,0.5,10.8-1.6,12.8-3.7c2.2-2.3,1.6-3.8-0.3-7.6
		c2.2,0.4,1.9,0.9,4.3,0.8l14.2-1.7c1.6,2.1,2.8,1.9,3.6,3.5c0.7,1.3,0.6,4,1.3,6.1c3.1,9.4,4.3-4,12,18.2c1.8,5.2,3.5,3.8,4.6,10.5
		c1.2,7,13.9,25.1,14.3,31.9c0.2,2.9-2.2,7.3-3.4,8.9c-4.1,5.7-6.8,3.8-6.3,7.3c4.9,1.4,13.2-5.4,15.6-6.2
		c11.8-3.8,2.3-3.3,1.8-15.4c4.9-3,8.3-5.1,11.3-8.2c-1.1-5.1-5.9-15.2-8.7-19.9c-6.2-10.3-3.9-7.3-7.6-14.6c-1-2-1.6-1.7-2.4-4.5
		c-1.7-5.7-2-14.6-3.4-21.2c-4.8-23.6,11.9-30.4,17.6-49.1c1.1-3.6,1.5-5.7,4.5-7.5c14.6-8.6,6.7-6.9,13.4-12.7c2.4-2,4.4-4.1,7.1-6
		l-6.4-12.4c0.7-2,2.1-3.5,4.7-5.2C172.3,45.4,171.2,45.6,173.6,46.7"/>
	<path class="st1" d="M63.6,21.3c-50.4,27.1-75,103.1-55.3,156.3c1.7,4.6,3.1,7.9,4.9,11.9l5.5,10.8c1.4,2.3,2.3,3.4,3.8,5.6
		c18,25.4,34,40.1,63.7,51.3c35.6,13.4,73.2,11.2,106.8-5l1.8-0.9c0.1-0.1,0.4-0.2,0.6-0.3l21-13.9c20.9-16.4,39.5-44.1,45.2-70.9
		c-6.7,24.2-23,43.9-40.7,59.2c-4.3,3.7-8.8,6.4-13.6,9.2c-14.9,8.6-25.6,14.2-46.3,16.8c-43.1,5.5-82.8-7.6-110.7-41.4
		c-5.5-6.7-16.4-18.2-18-26.8c-2.5-1.2-2.1-4.9-3.2-7.3c-0.5-1.2-1-2.3-1.5-3.5C11,132,18.3,86.2,45.4,51.8
		C73.8,15.9,123.2-4.4,168.5,6.5C135.2-1.7,98,1.1,68.8,18.4C67.3,19.2,65,20.4,63.6,21.3"/>
	<path class="st2" d="M60.5,33.2C26,51.7,2.5,99.5,2.8,137.8c0.1,15.3,0.9,26.1,6.3,40.7c1.6,4.2,2.9,7.3,4.5,11.1l5.1,10
		c1.3,2.1,2.1,3.2,3.5,5.2c16.7,23.6,31.5,37.2,59.2,47.6c33.1,12.5,68,10.4,99.2-4.7l1.7-0.9c0.1-0.1,0.4-0.2,0.6-0.3l19.5-12.9
		c19.4-15.3,36.7-41,42-65.9c-6.2,22.4-21.4,40.7-37.8,55c-4,3.5-8.1,5.9-12.7,8.5c-13.9,8-23.8,13.2-43,15.6
		c-40.1,5.1-76.4-7.8-102.3-39.2c-5.1-6.2-13.6-18.2-16.5-24.9c-1.1-2.6-2-4.5-3-6.8C11.9,137.7,17.7,94.5,43.6,61.6
		c6.5-8.3,20-21.2,28.9-26.6c24.6-14.9,57.2-22.3,85.4-15.5c-31-7.7-65.5-5-92.6,11C64,31.3,61.8,32.7,60.5,33.2"/>
	<g>
		<defs>
			<path id="SVGID_9_" d="M158,94.2h2.5c2.8,0,4.9,0.5,6.3,1.6c1.4,1.1,2.1,2.8,2.1,5c0,2.2-0.7,3.8-2.2,5c-1.4,1.2-3.5,1.8-6.2,1.8
				H158V94.2z M148.3,135h9.7v-19h3.6c5.3,0,9.5-1.4,12.7-4.3c3.1-2.8,4.7-6.6,4.7-11.4c0-2.6-0.6-5-1.8-7.3
				c-1.2-2.3-2.8-4.1-4.8-5.5c-1.1-0.7-2.6-1.3-4.4-1.6c-1.8-0.3-4.3-0.5-7.4-0.5h-12.3V135z"/>
		</defs>
		<clipPath id="SVGID_10_">
			<use xlink:href="#SVGID_9_"  style="overflow:visible;"/>
		</clipPath>
		<linearGradient id="SVGID_11_" gradientUnits="userSpaceOnUse" x1="163.5926" y1="127.8056" x2="163.5926" y2="85.5658">
			<stop  offset="0" style="stop-color:#312F77"/>
			<stop  offset="0.7755" style="stop-color:#3E9FB4"/>
			<stop  offset="1" style="stop-color:#42C0C6"/>
		</linearGradient>
		<rect x="148.3" y="85.5" class="st3" width="30.6" height="49.5"/>
	</g>
	<g>
		<defs>
			<path id="SVGID_12_" d="M189.4,93.5h3.6c3.6,0,6.3,0.6,8,1.9c1.7,1.2,2.6,3.2,2.6,5.8c0,2.7-1,4.8-3,6.2c-2,1.4-5,2.1-8.9,2.1
				h-2.1V93.5z M179.7,135h9.7v-23l12.8,23h11.6l-12.4-19.2c3.6-0.7,6.5-2.4,8.6-5.1c2.1-2.7,3.2-5.9,3.2-9.7c0-3.2-0.7-5.9-2.2-8.3
				c-1.5-2.4-3.6-4.2-6.4-5.5c-1.3-0.6-2.9-1-4.7-1.3c-1.8-0.3-4.6-0.4-8.4-0.4h-11.8V135z"/>
		</defs>
		<clipPath id="SVGID_13_">
			<use xlink:href="#SVGID_12_"  style="overflow:visible;"/>
		</clipPath>
		<linearGradient id="SVGID_14_" gradientUnits="userSpaceOnUse" x1="196.7231" y1="127.8056" x2="196.7231" y2="85.5658">
			<stop  offset="0" style="stop-color:#312F77"/>
			<stop  offset="0.7755" style="stop-color:#3E9FB4"/>
			<stop  offset="1" style="stop-color:#42C0C6"/>
		</linearGradient>
		<rect x="179.7" y="85.5" class="st4" width="34" height="49.5"/>
	</g>
	<g>
		<defs>
			<path id="SVGID_15_" d="M232.3,124.6c-1.9-0.9-3.7-2.2-5.2-3.8c-1.4-1.5-2.4-3.2-3.1-5c-0.7-1.8-1.1-3.8-1.1-6
				c0-4.2,1.5-7.8,4.5-10.8c3-3,6.7-4.5,11-4.5c4.2,0,7.7,1.5,10.7,4.5c3,3,4.4,6.6,4.4,10.8c0,4.6-1.5,8.4-4.4,11.5
				c-2.9,3.1-6.6,4.6-10.9,4.6C236.2,125.9,234.2,125.5,232.3,124.6 M212.8,110v0.1c0,3.5,0.6,6.7,1.8,9.8c1.2,3.1,2.9,5.8,5.3,8.2
				c2.4,2.6,5.2,4.5,8.3,5.8c3.1,1.3,6.5,2,10.2,2c3.4,0,6.8-0.7,9.9-2c3.2-1.3,5.9-3.3,8.3-5.8c2.4-2.4,4.1-5.2,5.4-8.3
				c1.2-3.1,1.8-6.4,1.8-10c0-3.4-0.6-6.6-1.9-9.7c-1.3-3.1-3.2-5.9-5.6-8.3c-2.4-2.4-5.1-4.2-8.2-5.5c-3.1-1.3-6.2-1.9-9.5-1.9
				c-4.4,0-8.4,1-12.1,2.9c-3.7,1.9-6.8,4.7-9.2,8.2c-1.4,2.1-2.5,4.4-3.2,6.8C213.1,104.8,212.8,107.3,212.8,110z"/>
		</defs>
		<clipPath id="SVGID_16_">
			<use xlink:href="#SVGID_15_"  style="overflow:visible;"/>
		</clipPath>
		<linearGradient id="SVGID_17_" gradientUnits="userSpaceOnUse" x1="238.2167" y1="127.8056" x2="238.2167" y2="85.5658">
			<stop  offset="0" style="stop-color:#312F77"/>
			<stop  offset="0.7755" style="stop-color:#3E9FB4"/>
			<stop  offset="1" style="stop-color:#42C0C6"/>
		</linearGradient>
		<rect x="212.8" y="84.5" class="st5" width="50.9" height="51.5"/>
	</g>
	<g>
		<defs>
			<path id="SVGID_18_" d="M279.1,86.3c-2.9,1.2-5.6,3-8,5.4c-2.5,2.5-4.5,5.4-5.8,8.5c-1.3,3.1-2,6.4-2,9.8c0,3.4,0.5,6.6,1.6,9.6
				c1.1,3,2.7,5.6,4.8,8c2.5,2.8,5.3,4.9,8.5,6.4c3.1,1.4,6.6,2.1,10.3,2.1c5.4,0,10-1.3,13.8-3.8c3.9-2.5,6.9-6.3,9.3-11.4h-11.9
				c-1.2,1.7-2.8,3-4.7,3.9c-1.9,0.9-4.1,1.4-6.5,1.4c-4.2,0-7.8-1.5-10.7-4.6c-2.9-3.1-4.4-6.9-4.4-11.4c0-2.1,0.4-4.1,1.2-6
				c0.8-2,1.9-3.7,3.4-5.2c1.4-1.4,3-2.5,4.8-3.3c1.8-0.7,3.7-1.1,5.7-1.1c2.5,0,4.7,0.5,6.6,1.4c1.9,1,3.6,2.4,5,4.3h11.8
				c-2.5-5.3-5.6-9.2-9.4-11.8c-3.8-2.6-8.5-3.9-13.9-3.9C285.2,84.5,282,85.1,279.1,86.3"/>
		</defs>
		<clipPath id="SVGID_19_">
			<use xlink:href="#SVGID_18_"  style="overflow:visible;"/>
		</clipPath>
		<linearGradient id="SVGID_20_" gradientUnits="userSpaceOnUse" x1="287.6219" y1="127.8056" x2="287.6219" y2="85.5658">
			<stop  offset="0" style="stop-color:#312F77"/>
			<stop  offset="0.7755" style="stop-color:#3E9FB4"/>
			<stop  offset="1" style="stop-color:#42C0C6"/>
		</linearGradient>
		<rect x="263.3" y="84.5" class="st6" width="48.6" height="51.5"/>
	</g>
	<g>
		<defs>
			<path id="SVGID_21_" d="M330.7,124.6c-1.9-0.9-3.7-2.2-5.2-3.8c-1.4-1.5-2.4-3.2-3.1-5c-0.7-1.8-1.1-3.8-1.1-6
				c0-4.2,1.5-7.8,4.5-10.8c3-3,6.7-4.5,11-4.5c4.1,0,7.7,1.5,10.7,4.5c3,3,4.4,6.6,4.4,10.8c0,4.6-1.5,8.4-4.4,11.5
				c-2.9,3.1-6.6,4.6-10.9,4.6C334.6,125.9,332.6,125.5,330.7,124.6 M311.2,110v0.1c0,3.5,0.6,6.7,1.8,9.8c1.2,3.1,2.9,5.8,5.3,8.2
				c2.4,2.6,5.2,4.5,8.3,5.8c3.1,1.3,6.5,2,10.2,2c3.4,0,6.8-0.7,9.9-2c3.2-1.3,5.9-3.3,8.3-5.8c2.4-2.4,4.1-5.2,5.4-8.3
				c1.2-3.1,1.8-6.4,1.8-10c0-3.4-0.6-6.6-1.9-9.7c-1.3-3.1-3.2-5.9-5.6-8.3c-2.4-2.4-5.1-4.2-8.2-5.5c-3.1-1.3-6.2-1.9-9.5-1.9
				c-4.4,0-8.4,1-12.1,2.9c-3.7,1.9-6.8,4.7-9.2,8.2c-1.4,2.1-2.5,4.4-3.2,6.8C311.6,104.8,311.2,107.3,311.2,110z"/>
		</defs>
		<clipPath id="SVGID_22_">
			<use xlink:href="#SVGID_21_"  style="overflow:visible;"/>
		</clipPath>
		<linearGradient id="SVGID_23_" gradientUnits="userSpaceOnUse" x1="336.651" y1="127.8056" x2="336.651" y2="85.5658">
			<stop  offset="0" style="stop-color:#312F77"/>
			<stop  offset="0.7755" style="stop-color:#3E9FB4"/>
			<stop  offset="1" style="stop-color:#42C0C6"/>
		</linearGradient>
		<rect x="311.2" y="84.5" class="st7" width="50.9" height="51.5"/>
	</g>
	<g>
		<defs>
			<polygon id="SVGID_24_" points="363.8,135 373.3,135 373.3,102.4 394,135 403,135 403,85.5 393.5,85.5 393.5,117.1 373,85.5 
				363.8,85.5 			"/>
		</defs>
		<clipPath id="SVGID_25_">
			<use xlink:href="#SVGID_24_"  style="overflow:visible;"/>
		</clipPath>
		<linearGradient id="SVGID_26_" gradientUnits="userSpaceOnUse" x1="383.3852" y1="127.8056" x2="383.3852" y2="85.5658">
			<stop  offset="0" style="stop-color:#312F77"/>
			<stop  offset="0.7755" style="stop-color:#3E9FB4"/>
			<stop  offset="1" style="stop-color:#42C0C6"/>
		</linearGradient>
		<rect x="363.8" y="85.5" class="st8" width="39.2" height="49.5"/>
	</g>
	<g>
		<defs>
			<path id="SVGID_27_" d="M430.6,135H455l7.7-9.7h-31.6c-4.2,0-8-1.7-10.7-4.4c-2.7-2.7-4.4-6.5-4.4-10.7c0-8.3,6.8-15.1,15.1-15.1
				h31.6l-7.9-9.9h-24.2c-6.9,0-13.1,2.8-17.6,7.3c-4.5,4.5-7.3,10.8-7.3,17.6C405.6,123.8,416.8,135,430.6,135"/>
		</defs>
		<clipPath id="SVGID_28_">
			<use xlink:href="#SVGID_27_"  style="overflow:visible;"/>
		</clipPath>
		<linearGradient id="SVGID_29_" gradientUnits="userSpaceOnUse" x1="434.1584" y1="137.1739" x2="434.1584" y2="103.7273">
			<stop  offset="0" style="stop-color:#312F77"/>
			<stop  offset="0.7755" style="stop-color:#3E9FB4"/>
			<stop  offset="1" style="stop-color:#42C0C6"/>
		</linearGradient>
		<rect x="405.6" y="85.2" class="st9" width="57.1" height="49.9"/>
	</g>
	<polygon class="st10" points="473.5,105.4 430.1,105.4 430.1,115.1 473.4,115.1 477.3,110.1 	"/>
	<polygon class="st10" points="462.5,135 473.9,135 494.4,110.1 481.7,95.1 481.8,95.1 473.3,85.2 462.2,85.2 473.8,99.7 
		473.8,99.7 482.2,110.1 	"/>
	<polygon class="st11" points="499.3,85.2 488.8,98 494.9,105.4 510.5,85.2 	"/>
	<polygon class="st11" points="494.8,115 510.5,135 499.2,135 488.8,122.5 	"/>
	<path d="M502.9,152.8v7.8h-5.3v-7.8l-7.2-11h5.9l3.9,5.9l3.9-5.9h5.9L502.9,152.8z M464.5,141.8h5.3l6.6,12.8l6.6-12.8h5.3v18.8
		h-5.3v-7.8l-4,7.8h-5.2l-4-7.8v7.8h-5.3V141.8z M447.4,141.8h14.7v4.1h-9.4v2.8h9.4v4.1h-9.4v3.7h9.4v4.1h-14.7V141.8z
		 M430.6,145.9v10.6h2.2c1.9,0,3.5-0.5,4.9-1.6c1.4-1,2-2.3,2-3.7c0-1.5-0.7-2.7-2-3.8c-1.4-1-3-1.6-4.9-1.6H430.6z M425.3,141.8
		h7.6c3.3,0,6.2,0.9,8.6,2.8c2.4,1.8,3.6,4.1,3.6,6.7c0,2.6-1.2,4.8-3.6,6.6c-2.4,1.8-5.3,2.8-8.6,2.8h-7.6V141.8z M414.4,153.4
		l-1.7-3.3l-1.7,3.3H414.4z M414.3,141.8l9.4,18.8H418l-1.6-3.2H409l-1.6,3.2h-5.7l9.4-18.8H414.3z M391.2,141.8
		c2.4,0,4.6,0.5,6.6,1.5c2,1,3.5,2.3,4.5,3.9h-6.5c-1.3-0.9-2.8-1.3-4.5-1.3c-1.9,0-3.5,0.5-4.9,1.6c-1.3,1-2,2.3-2,3.8
		c0,1.5,0.7,2.7,2,3.8c1.3,1,3,1.6,4.9,1.6c1.8,0,3.3-0.4,4.5-1.3h6.5c-1,1.6-2.5,2.9-4.5,3.9c-2,1-4.2,1.5-6.6,1.5
		c-3.4,0-6.2-0.9-8.6-2.7c-2.4-1.8-3.6-4-3.6-6.6c0-2.6,1.2-4.8,3.6-6.7C384.9,142.8,387.8,141.8,391.2,141.8z M370.6,153.4
		l-1.7-3.3l-1.7,3.3H370.6z M370.5,141.8l9.4,18.8h-5.7l-1.6-3.2h-7.4l-1.6,3.2H358l9.4-18.8H370.5z M337.3,147.5
		c-1.3-1-3-1.6-4.9-1.6c-1.9,0-3.5,0.5-4.9,1.6c-1.3,1-2,2.3-2,3.8c0,1.5,0.7,2.7,2,3.8c1.3,1,3,1.6,4.9,1.6c1.9,0,3.5-0.5,4.9-1.6
		c1.3-1,2-2.3,2-3.8C339.3,149.8,338.6,148.5,337.3,147.5z M323.8,144.6c2.4-1.8,5.2-2.8,8.6-2.8c3.4,0,6.2,0.9,8.6,2.8
		c2.4,1.8,3.6,4.1,3.6,6.7c0,2.6-1.2,4.8-3.6,6.6c-2.4,1.8-5.3,2.7-8.6,2.7c-3.4,0-6.2-0.9-8.6-2.7c-2.4-1.8-3.6-4-3.6-6.6
		C320.3,148.7,321.5,146.4,323.8,144.6z M304.6,145.9v10.6h2.2c1.9,0,3.5-0.5,4.9-1.6c1.4-1,2-2.3,2-3.7c0-1.5-0.7-2.7-2-3.8
		c-1.4-1-3-1.6-4.9-1.6H304.6z M299.3,141.8h7.6c3.3,0,6.2,0.9,8.6,2.8c2.4,1.8,3.6,4.1,3.6,6.7c0,2.6-1.2,4.8-3.6,6.6
		c-2.4,1.8-5.3,2.8-8.6,2.8h-7.6V141.8z M278.9,141.8h5.3l6.7,9.9v-9.9h5.3v18.8h-5.3l-6.7-9.9v9.9h-5.3V141.8z M269.4,147.5
		c-1.3-1-3-1.6-4.9-1.6c-1.9,0-3.5,0.5-4.9,1.6c-1.3,1-2,2.3-2,3.8c0,1.5,0.7,2.7,2,3.8c1.3,1,3,1.6,4.9,1.6c1.9,0,3.5-0.5,4.9-1.6
		c1.3-1,2-2.3,2-3.8C271.4,149.8,270.8,148.5,269.4,147.5z M256,144.6c2.4-1.8,5.2-2.8,8.6-2.8c3.4,0,6.2,0.9,8.6,2.8
		c2.4,1.8,3.6,4.1,3.6,6.7c0,2.6-1.2,4.8-3.6,6.6c-2.4,1.8-5.3,2.7-8.6,2.7c-3.4,0-6.2-0.9-8.6-2.7c-2.4-1.8-3.6-4-3.6-6.6
		C252.4,148.7,253.6,146.4,256,144.6z M244.8,141.8h5.3v12.9c0,1.6-0.8,3-2.3,4.2c-1.5,1.2-3.3,1.7-5.4,1.7c-1.9,0-3.5-0.5-5-1.5
		c-1.5,1-3.1,1.5-5,1.5c-2.1,0-3.9-0.6-5.4-1.7c-1.5-1.2-2.3-2.6-2.3-4.2v-12.9h5.3v12.9c0,0.5,0.2,0.9,0.7,1.3
		c0.5,0.4,1,0.6,1.7,0.6c0.6,0,1.2-0.2,1.7-0.5c0.5-0.4,0.7-0.8,0.7-1.3v-12.9h5.3v12.9c0,0.5,0.2,0.9,0.7,1.3
		c0.5,0.4,1,0.6,1.7,0.6c0.7,0,1.2-0.2,1.7-0.5c0.5-0.4,0.7-0.8,0.7-1.3V141.8z M204.2,141.8h5.3v6.2l5.9-6.2h6.6l-8.4,8.8l9.3,10
		h-6.5l-6.9-7.4v7.4h-5.3V141.8z M187.1,141.8h14.7v4.1h-9.4v2.8h9.4v4.1h-9.4v3.7h9.4v4.1h-14.7V141.8z M176.1,153.4l-1.7-3.3
		l-1.7,3.3H176.1z M176,141.8l9.4,18.8h-5.7l-1.6-3.2h-7.4l-1.6,3.2h-5.7l9.4-18.8H176z M164.5,145.9h-5.3v14.7h-5.3v-14.7h-5.3
		v-4.1h15.9V145.9z"/>
</g>
</svg>
